<svg xmlns="http://www.w3.org/2000/svg" width="80%" height="100%" viewBox="0 0 472.829 214.879">
  <g id="Logo" transform="translate(-479.051 -265.563)">
    <g id="Logo-2" data-name="Logo">
      <g id="Text">
        <path id="Path_634" data-name="Path 634" d="M548.2,480.41l32.15-76.84H581l32.24,76.84H601.88l-24.09-61.33,7.05-4.59L558,480.41Zm18.88-28h27.45l3.26,8.57H564.22Z" fill="#212121"/>
        <path id="Path_635" data-name="Path 635" d="M650.55,480.41a20.43,20.43,0,0,1-10.36-2.55,21.2,21.2,0,0,1-7.09-6.43l1.12-2.86v11.84h-9.59v-80h9.49v46.43l-.2-3.67a17.87,17.87,0,0,1,7.19-5.56,25,25,0,0,1,10.66-2.2,20,20,0,0,1,10.31,2.76,20.331,20.331,0,0,1,7.5,7.7,23.289,23.289,0,0,1,2.81,11.68,24,24,0,0,1-3,12.3,20.43,20.43,0,0,1-8,7.86A22.43,22.43,0,0,1,650.55,480.41Zm-2-8.06a14.09,14.09,0,0,0,7.4-1.94,13.839,13.839,0,0,0,5.05-5.3,15.6,15.6,0,0,0,1.83-7.56,14.74,14.74,0,0,0-1.88-7.39A13.891,13.891,0,0,0,655.8,445a14.1,14.1,0,0,0-7.29-1.89,16.081,16.081,0,0,0-6.43,1.28,13.55,13.55,0,0,0-7.86,8.83v8.67A14.65,14.65,0,0,0,637,467.2a13.38,13.38,0,0,0,4.95,3.77,15.58,15.58,0,0,0,6.56,1.38Z" fill="#212121"/>
        <path id="Path_636" data-name="Path 636" d="M697.08,480.41a24.869,24.869,0,0,1-8.73-1.58,16.94,16.94,0,0,1-7-4.75l4-5.51a21.487,21.487,0,0,0,5.51,3.83,13.06,13.06,0,0,0,5.51,1.28,13.391,13.391,0,0,0,3.78-.51,5.81,5.81,0,0,0,2.81-1.74,4.63,4.63,0,0,0,1.07-3.16,4.53,4.53,0,0,0-1.48-3.62,12,12,0,0,0-3.73-2.1c-1.49-.54-3.13-1.05-4.89-1.53a18.09,18.09,0,0,1-8-4.79,10.74,10.74,0,0,1-2.76-7.45,12.339,12.339,0,0,1,1.68-6.28,13,13,0,0,1,5.06-4.79,16.41,16.41,0,0,1,8.16-1.89,26.831,26.831,0,0,1,7.86,1.07,18.821,18.821,0,0,1,6.53,3.62l-3.78,5.92a11.78,11.78,0,0,0-4.34-2.91,12.8,12.8,0,0,0-4.54-1,10,10,0,0,0-3.41.57,6,6,0,0,0-2.56,1.63,3.89,3.89,0,0,0-1,2.7,4.06,4.06,0,0,0,1.38,3.42A11.789,11.789,0,0,0,698,453q2.24.82,4.59,1.63A22.863,22.863,0,0,1,708.1,457a12.7,12.7,0,0,1,3.93,3.78,10.05,10.05,0,0,1,1.48,5.61,14.15,14.15,0,0,1-1.79,7,12.68,12.68,0,0,1-5.41,5.1A19.86,19.86,0,0,1,697.08,480.41Z" fill="#212121"/>
        <path id="Path_637" data-name="Path 637" d="M730.75,401.43h9.7v36.94H752v7.45H740.45v34.59h-9.7V445.82H723.1v-7.45h7.65Z" fill="#212121"/>
        <path id="Path_638" data-name="Path 638" d="M772.79,446v34.39H763.3v-42h28.93V446Z" fill="#212121"/>
        <path id="Path_639" data-name="Path 639" d="M812.28,479.2a25.1,25.1,0,0,1-10.86-6.74,20.49,20.49,0,0,1-5.09-10.12,23,23,0,0,1,1-11.88,20.8,20.8,0,0,1,6.67-9.71,24.211,24.211,0,0,1,10.68-5,23.18,23.18,0,0,1,12.19.88,20.15,20.15,0,0,1,11.59,9.08q3.64,6.41,2.84,15.18l-37,.44-.79-9h28c-.05-2.39-.23-2.33-1.35-4a12.13,12.13,0,0,0-6.47-4.62,12.91,12.91,0,0,0-7.11-.47,13.11,13.11,0,0,0-6.12,3.27,15.6,15.6,0,0,0-4,6.55,16.12,16.12,0,0,0-.76,7.82,13.05,13.05,0,0,0,3.06,6.58,14.12,14.12,0,0,0,6.31,4.12,14.489,14.489,0,0,0,5.4.75,41.76,41.76,0,0,0,7.35-.93v8a29.271,29.271,0,0,1-7.83,1,23.9,23.9,0,0,1-7.71-1.2Z" fill="#212121"/>
        <path id="Path_640" data-name="Path 640" d="M870.55,480.41a22.76,22.76,0,0,1-10.77-2.55,19,19,0,0,1-7.7-7.5,23.77,23.77,0,0,1-2.86-12.09,24.079,24.079,0,0,1,3-12.25,20.49,20.49,0,0,1,8-7.85,22.209,22.209,0,0,1,10.92-2.76,17.92,17.92,0,0,1,10.05,2.71,18.31,18.31,0,0,1,6.17,6.37l-.61,1.53.2-8.87h9.49v42.24h-9.49v-11l1.13,2.45a12.855,12.855,0,0,1-1.94,2.6,25.2,25.2,0,0,1-3.62,3.22,20.281,20.281,0,0,1-5.16,2.7,19.8,19.8,0,0,1-6.81,1.05Zm2.55-7.86a15.181,15.181,0,0,0,6.43-1.32,12.62,12.62,0,0,0,4.74-3.78,14,14,0,0,0,2.6-5.71v-8.27a13,13,0,0,0-2.85-5.36,14.42,14.42,0,0,0-4.9-3.57,15.12,15.12,0,0,0-6.23-1.27,13.63,13.63,0,0,0-12.09,6.94,15,15,0,0,0-1.89,7.65,14.681,14.681,0,0,0,1.94,7.45,14.5,14.5,0,0,0,5.21,5.31,13.54,13.54,0,0,0,7.04,1.93Z" fill="#212121"/>
        <path id="Path_641" data-name="Path 641" d="M912.69,480.41v-79h9.59v79Zm6.63-13.47-.91-9.18L944,437.25l5.81,5Zm13.27-14.59,19.29,28.06H940.75l-14.59-22.65Z" fill="#212121"/>
      </g>
      <g id="Icon">
        <path id="Path_642" data-name="Path 642" d="M517.57,290.36l-7.76-1.43a.6.6,0,0,0-.71.68l1.32,84.7a.61.61,0,0,0,.84.47l67.32-24.31a.61.61,0,0,1,.82.73L540.8,480a.61.61,0,0,1-1.19-.08L541.15,400a.6.6,0,0,0-.83-.47L479.89,432.4a.61.61,0,0,1-.82-.72l18.71-145a.61.61,0,0,0-.46-.75l-9.28-2.1a1,1,0,0,1-.45-1.73l18.33-16.28a1,1,0,0,1,1.57.31l11.16,22.86a1,1,0,0,1-1.08,1.37Z" fill="#212121"/>
        <path id="Path_643" data-name="Path 643" d="M503.39,297.54l1.32,87.28a.61.61,0,0,0,.82.51l64.33-23.19a.61.61,0,0,1,.81.71L544.06,460.4a.61.61,0,0,1-1.2,0l2.8-70.65a.6.6,0,0,0-.78-.47l-56.74,29.68a.6.6,0,0,1-.77-.74L502.2,297.44a.61.61,0,0,1,1.19.1Z" fill="#f96e46"/>
      </g>
    </g>
  </g>
</svg>
