<?xml version="1.0" encoding="utf-8"?>
<!-- Generator: Adobe Illustrator 25.0.1, SVG Export Plug-In . SVG Version: 6.00 Build 0)  -->
<svg version="1.1" id="Layer_1" xmlns="http://www.w3.org/2000/svg" xmlns:xlink="http://www.w3.org/1999/xlink" x="0px" y="0px"
	 viewBox="0 0 289.2 293" style="enable-background:new 0 0 289.2 293;" xml:space="preserve">
<style type="text/css">
	.st0{fill:#F574B4;}
	.st1{fill:#FFCB47;}
	.st2{fill:#FFFFFF;}
	.st3{fill:none;}
	.st4{fill:#FE3856;}
	.st5{fill:#7BAFEB;}
</style>
<g id="Group_260" transform="translate(-24.328 -475.83)">
	<path id="Path_900" d="M285.3,684.3l-37.6-13.1v-16l0.1-0.1c0.1,0,6.7-4.6,12.5-14.5c5.4-9.2,11.1-25.1,8.1-48.5
		s-26.1-33.1-45-37.1l-0.2,0v-0.2l-7.4-40.8l0.4,0.1c14.5,2.7,28.6,7.2,42,13.4c20,9.3,45.3,26.4,52.4,55.2s-0.1,54.9-7.4,71.7
		c-4.6,10.7-10.5,20.8-17.7,29.9L285.3,684.3z M248.3,670.8l36.8,12.8c7.1-9.1,12.9-19,17.5-29.6c7.2-16.7,14.4-42.7,7.4-71.3
		s-32.2-45.6-52-54.8c-13.2-6.1-27.1-10.5-41.4-13.2l7.2,39.7c19.1,4.1,42.3,14,45.3,37.6s-2.8,39.7-8.2,49s-11.5,13.9-12.5,14.6
		L248.3,670.8z"/>
	<path id="Path_901" class="st0" d="M253.7,741.3V763l42.2-2.8v-18.9H253.7z"/>
	<path id="Path_902" class="st1" d="M41.4,539.2L76,675l149-32.1l-10.6-48.6l-14.2-83.8L41.4,539.2z"/>
	<path id="Path_903" d="M196.8,680.9l-2.8-8.2c0,0-17.6-8.2-14.8-19.5c1.9-7.2,4.8-14.2,8.6-20.6c0,0-5.3-2.2-3.5-6.3
		c1.7-3.8,7.1,0,7.1,0s12.7-29.5,24.4-30.6c16.3-1.6,46.1,17.3,44.7,38.1c0,0-0.6,8.9-4.3,15.3c0,0,8.1,2.3,8.6,7.6
		c0,0,28.6-5.3,30.9,24.3s-47.1,30.7-47.1,30.7s-20.2,1.3-20.3-15.1c0,0-12-1.5-10-17.9C218.4,678.6,201,681.7,196.8,680.9z"/>
	<path id="Path_904" d="M163.7,768.8c-0.1,0-0.3-0.1-0.3-0.2l-8.4-24.3c-0.1-0.2,0-0.3,0.2-0.4c0.2-0.1,0.3,0,0.4,0.2c0,0,0,0,0,0
		l8.4,24.3C164,768.6,163.9,768.8,163.7,768.8L163.7,768.8z"/>
	<path id="Path_905" d="M180.7,768.8c-0.1,0-0.3-0.1-0.3-0.2l-7.5-27.2c0-0.2,0.1-0.3,0.2-0.4c0.2,0,0.4,0.1,0.4,0.2l7.5,27.2
		C181.1,768.6,181,768.8,180.7,768.8C180.8,768.8,180.8,768.8,180.7,768.8L180.7,768.8z"/>
	<path id="Path_906" d="M282.7,755.2c-0.1,0-0.3-0.1-0.3-0.2l-12-46.9c0-0.2,0.1-0.3,0.2-0.4c0.2,0,0.3,0.1,0.4,0.2c0,0,0,0,0,0
		l12,46.9C283.1,755,283,755.2,282.7,755.2L282.7,755.2z"/>
	<path id="Path_907" d="M172.2,684.2c-0.2,0-0.3-0.1-0.3-0.3c0-0.2,0.1-0.3,0.3-0.4c0,0,0,0,0,0l26.1-3.3c0.2,0,0.3,0.1,0.4,0.3
		c0,0.2-0.1,0.3-0.3,0.4c0,0,0,0,0,0L172.2,684.2L172.2,684.2z"/>
	<path id="Path_908" d="M301.2,658.2c-0.2,0-0.3-0.1-0.3-0.3c0-0.2-3.2-20.2-36.5-24.9c-0.2,0-0.3-0.2-0.3-0.3
		c0-0.2,0.2-0.3,0.3-0.3c0,0,0,0,0,0c33.8,4.8,37,25.2,37,25.4C301.5,658,301.4,658.1,301.2,658.2
		C301.2,658.2,301.2,658.2,301.2,658.2L301.2,658.2z"/>
	<path id="Path_909" d="M296.8,666.9c-0.2,0-0.3-0.1-0.3-0.3c0-0.2-3.3-21-35.4-26.4c-0.2,0-0.3-0.2-0.3-0.3c0-0.2,0.2-0.3,0.3-0.3
		c0,0,0,0,0,0c32.6,5.5,35.9,26.7,36,26.9C297.1,666.7,297,666.8,296.8,666.9C296.8,666.9,296.8,666.9,296.8,666.9L296.8,666.9z"/>
	<path id="Path_910" d="M89,670.4l-0.1-0.3L54.5,531.8l0.3-0.1l159.4-29.6l0.1,0.3l18,98.4l8.5,34.5l-0.3,0.1L89,670.4z M55.3,532.3
		l34.2,137.4L239.9,635l-8.3-33.9l-17.9-98.1L55.3,532.3z"/>
	<path id="Path_911" d="M98.3,652.4L69,543.7l0.3-0.1l135.1-23.7l0.1,0.3l14.8,77.6l7.9,31.6L98.3,652.4z M69.8,544.2l28.9,107.5
		L226.4,629l-7.7-31l-14.7-77.3L69.8,544.2z"/>
	<path id="Path_912" d="M69.4,544.3c-0.1,0-0.1,0-0.2-0.1l-14.5-11.9c-0.1-0.1-0.2-0.3,0-0.5c0.1-0.1,0.3-0.2,0.4,0l14.5,11.9
		c0.1,0.1,0.1,0.3,0,0.5C69.6,544.2,69.5,544.3,69.4,544.3L69.4,544.3z"/>
	<path id="Path_913" d="M89.3,670.4c-0.1,0-0.1,0-0.2,0c-0.2-0.1-0.2-0.3-0.2-0.4c0,0,0,0,0,0l9.2-18c0.1-0.2,0.3-0.2,0.4-0.2
		c0.2,0.1,0.2,0.3,0.2,0.4c0,0,0,0,0,0l-9.2,18C89.5,670.3,89.4,670.4,89.3,670.4z"/>
	<path id="Path_914" d="M204.2,520.6c-0.1,0-0.1,0-0.2,0c-0.1-0.1-0.2-0.3-0.1-0.4l9.8-17.8c0.1-0.2,0.2-0.3,0.4-0.2
		c0.2,0.1,0.3,0.2,0.2,0.4c0,0,0,0.1-0.1,0.1l-9.8,17.8C204.4,520.6,204.3,520.6,204.2,520.6z"/>
	<circle id="Ellipse_242" class="st2" cx="147.9" cy="593.9" r="36.4"/>
	<path d="M151.7,621.5c-9.9,0-19.3-3.9-26.3-10.9c-7-7-10.9-16.4-10.9-26.3c0-9.9,3.9-19.3,10.9-26.3c7-7,16.4-10.9,26.3-10.9
		c0,0,0,0,0,0c9.9,0,19.3,3.9,26.3,10.9c7,7,10.9,16.4,10.9,26.3C188.9,604.8,172.2,621.5,151.7,621.5L151.7,621.5
		C151.7,621.5,151.7,621.5,151.7,621.5z M151.7,548C151.7,548,151.7,548,151.7,548c-9.7,0-18.8,3.8-25.6,10.6
		c-6.8,6.8-10.6,15.9-10.6,25.6s3.8,18.8,10.6,25.6c6.8,6.8,15.9,10.6,25.6,10.6c0,0,0,0,0,0l0,0c20,0,36.2-16.3,36.2-36.2
		c0-9.7-3.8-18.8-10.6-25.6C170.4,551.8,161.3,548,151.7,548z"/>
	<line id="Line_116" class="st3" x1="89.3" y1="540.5" x2="121.6" y2="563.8"/>
	<path id="Path_916" d="M121.6,564.1c-0.1,0-0.1,0-0.2-0.1l-32.3-23.3c-0.1-0.1-0.2-0.3-0.1-0.4c0,0,0,0,0,0
		c0.1-0.1,0.3-0.2,0.4-0.1c0,0,0,0,0,0l32.3,23.3c0.1,0.1,0.2,0.3,0.1,0.5C121.8,564,121.7,564.1,121.6,564.1L121.6,564.1z"/>
	<line id="Line_117" class="st3" x1="108.4" y1="537.1" x2="129.6" y2="555.3"/>
	<path id="Path_917" d="M129.6,555.6c-0.1,0-0.1,0-0.2-0.1l-21.2-18.2c-0.1-0.1-0.1-0.3,0-0.4c0,0,0,0,0,0c0.1-0.1,0.3-0.1,0.5,0
		l21.2,18.2c0.1,0.1,0.1,0.3,0,0.4C129.8,555.6,129.7,555.6,129.6,555.6z"/>
	<line id="Line_118" class="st3" x1="166.8" y1="526.9" x2="160.3" y2="548.9"/>
	<path id="Path_918" d="M160.3,549.2L160.3,549.2c-0.3,0-0.4-0.2-0.3-0.4c0,0,0,0,0,0l6.5-22c0-0.2,0.2-0.3,0.4-0.2c0,0,0,0,0,0
		c0.2,0,0.3,0.2,0.2,0.4c0,0,0,0,0,0l-6.5,22C160.6,549.1,160.4,549.2,160.3,549.2z"/>
	<line id="Line_119" class="st3" x1="184.3" y1="523.8" x2="173.8" y2="555.3"/>
	<path id="Path_919" d="M173.8,555.6C173.7,555.6,173.7,555.6,173.8,555.6c-0.3-0.1-0.4-0.2-0.3-0.4c0,0,0,0,0,0l10.6-31.5
		c0.1-0.2,0.3-0.2,0.4-0.2c0.1,0.1,0.2,0.2,0.2,0.4l-10.6,31.5C174,555.6,173.9,555.6,173.8,555.6z"/>
	<path id="Path_920" d="M149.8,604.8l-0.2-0.6l7.4-2.1l-5.6-37.8l-12.8,8.7c-0.1,0.1-0.3,0.1-0.4-0.1c0,0,0,0,0,0
		c-0.1-0.1-0.1-0.3,0.1-0.4c0,0,0,0,0,0l13.7-9.3l5.8,38.7l7.1-2c0.2-0.1,0.3,0,0.4,0.2c0.1,0.2,0,0.3-0.2,0.4c0,0,0,0,0,0
		L149.8,604.8z"/>
	<path id="Path_921" class="st4" d="M124.9,633.7v8.1l7.3-4.1L124.9,633.7z"/>
	<path id="Path_922" class="st2" d="M104.4,613.4c0,0,0.6,11.9-4.7,15.5c0,0,9,2.8,10.4,9c0,0-0.3-10.9,5.2-12.2
		C115.3,625.6,105.9,622.8,104.4,613.4z"/>
	<circle id="Ellipse_243" class="st5" cx="30.7" cy="522.7" r="4.9"/>
	<path id="Path_923" class="st2" d="M231.8,478.3c0,0,0.8,8.8-3.4,13.2c0,0,9.2,2.2,10.3,7.7c0,0,0.6-11.6,4.6-12.3
		C243.3,487,234,484.5,231.8,478.3z"/>
	<path id="Path_924" d="M239,501.8l-0.5-2.5c-1-5.3-10-7.4-10.1-7.5l-0.5-0.1l0.4-0.4c4-4.3,3.3-12.9,3.3-13l-0.2-2.5l0.8,2.4
		c2.1,6,11.2,8.5,11.3,8.5l1.4,0.4l-1.4,0.2c-3,0.5-4.1,8.8-4.3,12L239,501.8z M229.1,491.4c1.8,0.5,7.6,2.4,9.5,6.3
		c0.3-2.9,1.2-9.1,3.8-10.7c-2.2-0.7-7.7-2.9-10.2-7.1C232.2,482.6,231.9,488,229.1,491.4z"/>
	<path id="Path_925" class="st0" d="M35.1,514.4c-0.1,0-0.2,0-0.2-0.1l-8.1-8.3c-0.1-0.1-0.1-0.3,0-0.5c0.1-0.1,0.3-0.1,0.4,0
		l8.1,8.3c0.1,0.1,0.1,0.3,0,0.4c0,0,0,0,0,0C35.2,514.4,35.2,514.4,35.1,514.4z"/>
	<path id="Path_926" d="M115.3,521.1c-0.1,0-0.2,0-0.2-0.1c-0.1-0.1-0.1-0.3,0-0.4c0,0,0,0,0,0l19.2-20.2l26.2,11.8
		c0.2,0.1,0.2,0.3,0.1,0.4c-0.1,0.1-0.2,0.2-0.4,0.1l-25.8-11.6l-18.9,19.9C115.4,521.1,115.3,521.1,115.3,521.1z"/>
	<path id="Path_927" class="st2" d="M221.3,527.6c0,0-24.9-8-24.9-0.7c0,5.5,12.3,6,17.5,7.3c9.2,2.3,11.5,14.2,21.3,12"/>
	<path id="Path_928" d="M232.8,546.8c-4.2,0-7-2.9-9.9-5.9c-2.6-2.7-5.2-5.5-9.1-6.4c-1.1-0.3-2.6-0.5-4.1-0.8
		c-6.1-1-13.6-2.3-13.6-6.9c0-0.9,0.4-1.8,1.2-2.3c4.7-3.5,23.3,2.5,24.1,2.7c0.2,0,0.3,0.2,0.2,0.4c0,0,0,0,0,0
		c-0.1,0.2-0.2,0.3-0.4,0.2c0,0,0,0,0,0c-0.2-0.1-19-6.1-23.5-2.8c-0.6,0.4-0.9,1.1-0.9,1.8c0,4,7.6,5.3,13.1,6.2
		c1.6,0.3,3,0.5,4.2,0.8c4.1,1,6.8,3.9,9.4,6.6c3.3,3.4,6.3,6.6,11.7,5.4c0.2,0,0.3,0,0.4,0.2c0,0.2,0,0.3-0.2,0.4c0,0,0,0,0,0
		C234.5,546.7,233.7,546.8,232.8,546.8z"/>
	<path id="Path_929" class="st2" d="M173.3,741.3c0,0-134.8,29.6-146.8-55c-9.5-67,21.5-98.9,21.5-98.9s5.7-5.6,6.9-4.7
		c0,0,5.9-8.1,7.9-7.7c0,0,3.2-4.7,4,0s4,22.6,8.2,21.4s8-15,11.6-13s2.9,8.8-0.7,15.2s-11.2,12-14.3,21.7s-3.2,33-3.2,33
		s-4.6,46.2,39.3,42.1s50.3-10.7,64.3-11.3c0,0,13.3,16.1,13.3,30.4C185.5,737.2,173.3,741.3,173.3,741.3z"/>
	<path id="Path_930" d="M122.9,746.7c-22.2,0-50.7-3.3-70.9-17.3c-14.5-10.1-23.2-24.5-25.9-43c-4.9-34.7,1.2-59.8,7.2-74.8
		c6.5-16.2,14.3-24.4,14.4-24.5c1.3-1.3,5.4-5.2,7.1-4.9c1.2-1.7,5.7-7.6,7.9-7.7c0.4-0.6,1.8-2.3,3-2c0.7,0.2,1.2,0.9,1.5,2.3
		l0.1,0.5c0.8,4.5,3.4,18.4,6.7,20.4c0.3,0.2,0.7,0.3,1.1,0.2c1.8-0.5,3.7-3.7,5.5-6.8c2.2-3.8,4.2-7.4,6.4-6.2
		c1.1,0.6,1.9,1.7,2.2,3c0.9,3.2-0.1,8-2.7,12.7c-1.6,2.5-3.3,4.9-5.3,7.1c-3.3,4-7.1,8.5-9,14.5c-3.1,9.5-3.2,32.7-3.2,32.9
		s-2,21.3,10.1,33.4c6.7,6.7,16.4,9.5,28.9,8.4c26.6-2.5,39.3-5.9,48.6-8.3c6-1.6,10.3-2.7,15.8-2.9h0.2l0.1,0.1
		c0.1,0.2,13.5,16.3,13.5,30.6c0,22.9-12.4,27.3-12.5,27.3h0c-14.7,2.9-29.7,4.6-44.7,5C126.8,746.7,124.9,746.7,122.9,746.7z
		 M54.5,582.8c-0.9,0-3.9,2.4-6.3,4.7c-0.1,0.1-7.8,8.2-14.2,24.3c-6,14.9-12,39.9-7.1,74.4c2.6,18.3,11.2,32.6,25.6,42.6
		c21.9,15.2,53.6,17.7,76.3,17.1c15-0.4,29.8-2,44.5-4.9c0.5-0.2,12-4.7,12-26.7c0-13.4-12-28.5-13.2-30.1
		c-5.4,0.2-9.6,1.4-15.5,2.9c-9.3,2.5-22,5.8-48.7,8.4c-12.7,1.2-22.6-1.7-29.4-8.5c-12.3-12.4-10.3-33.7-10.3-33.9s0-23.5,3.2-33.1
		c2-6.1,5.8-10.7,9.1-14.7c1.9-2.2,3.7-4.6,5.2-7.1c2.5-4.5,3.6-9.2,2.7-12.2c-0.3-1.1-1-2-1.9-2.6c-1.6-0.9-3.6,2.6-5.5,5.9
		c-1.8,3.2-3.7,6.5-5.8,7.1c-0.5,0.1-1.1,0.1-1.6-0.3c-3.2-2-5.5-12.9-7-20.9l-0.1-0.5c-0.2-1.1-0.5-1.7-1-1.8
		c-0.8-0.2-2.1,1.4-2.5,1.9l-0.1,0.2h-0.2c-1.3-0.3-5.4,4.5-7.6,7.6l-0.2,0.3l-0.3-0.2C54.6,582.8,54.6,582.8,54.5,582.8L54.5,582.8
		z"/>
	<path id="Path_931" d="M44.2,604.8c-0.2,0-0.3-0.1-0.3-0.3c0,0,0,0,0,0c0-0.6-0.3-13.8,3.8-17.3c0.1-0.1,0.3-0.1,0.5,0
		c0.1,0.1,0.1,0.3,0,0.4c0,0,0,0,0,0c-3.9,3.4-3.6,16.7-3.6,16.8C44.5,604.6,44.4,604.7,44.2,604.8
		C44.2,604.7,44.2,604.7,44.2,604.8L44.2,604.8z"/>
	<path id="Path_932" d="M51.5,603.1c-0.2,0-0.3-0.1-0.3-0.3c0-0.6-0.8-15.2,3.4-20.5c0.1-0.1,0.3-0.1,0.4,0c0.1,0.1,0.1,0.3,0,0.4
		c-4.1,5-3.3,19.9-3.3,20C51.8,603,51.7,603.1,51.5,603.1C51.5,603.1,51.5,603.1,51.5,603.1L51.5,603.1z"/>
	<path id="Path_933" d="M60.8,600.5c-0.2,0-0.3-0.1-0.3-0.3c-0.1-0.7-3.1-17.4,2.1-25.6c0.1-0.1,0.3-0.2,0.4-0.1
		c0.1,0.1,0.2,0.3,0.1,0.4c-5,8-2,24.9-2,25.1C61.1,600.3,61,600.5,60.8,600.5L60.8,600.5z"/>
	<path id="Path_934" d="M133.6,746.4h-0.1c-0.2-0.1-0.2-0.2-0.2-0.4c11.2-29.7-6.3-52.6-6.4-52.8c-0.1-0.1-0.1-0.3,0.1-0.4
		c0.1-0.1,0.3-0.1,0.4,0.1c0.2,0.2,17.9,23.4,6.5,53.5C133.8,746.3,133.7,746.4,133.6,746.4L133.6,746.4z"/>
	<path id="Path_935" d="M143.8,745.8L143.8,745.8c-0.2,0-0.3-0.2-0.3-0.4c7.9-38.8-9.3-53.2-9.4-53.3c-0.1-0.1-0.2-0.3,0-0.5
		c0.1-0.1,0.3-0.2,0.4,0c0.2,0.1,17.6,14.7,9.7,53.9C144.1,745.7,144,745.8,143.8,745.8z"/>
	<path id="Path_936" class="st2" d="M213.1,597.9c0,0-3.9,21.9,8.1,34.8c0,0,10.7,5.4,8.9,9.9s-6.9,4.7-11.9,1.6
		c-2.4,2.4-3.6,5.9-3,9.3c0.8,6.1,5.5,12.4,11.5,13.8c0,0-6.1,4.9-6.9,9.2c0,0-10.9,1.2-13.9,2.7s-7.6,0-7.6,0
		c2.6-0.9,4.2-3.7,3.6-6.4c0,0-19.7-3.5-21-18.1c0,0,4.1-16.7,8.7-22.8c0,0-5.5-2.3-3.8-4.7c1.1-1.7,3.4-0.1,6.1,0.4
		C191.8,627.6,204.9,599.2,213.1,597.9z"/>
	<path id="Path_937" d="M193.5,644.4c-1.2,0-2.4-0.5-3.3-1.3c-0.1-0.1-0.1-0.3,0-0.4c0,0,0,0,0,0c0.1-0.1,0.3-0.1,0.4,0c0,0,0,0,0,0
		c1.6,1.5,4.1,1.5,5.7,0c0.1-0.1,0.3-0.1,0.4,0.1c0.1,0.1,0.1,0.3,0,0.4C195.8,644,194.6,644.4,193.5,644.4z"/>
	<path id="Path_938" d="M206,614.8c-0.1,0-0.2,0-0.2-0.1l-3.7-3.7c-0.1-0.1-0.1-0.3,0-0.4c0,0,0,0,0,0c0.1-0.1,0.3-0.1,0.5,0
		l3.7,3.7c0.1,0.1,0.1,0.3,0,0.5C206.2,614.8,206.1,614.8,206,614.8L206,614.8z"/>
	<ellipse id="Ellipse_244" transform="matrix(0.5 -0.866 0.866 0.5 -439.1083 483.576)" cx="199.2" cy="622.1" rx="2.7" ry="1.6"/>
</g>
</svg>
