<?xml version="1.0" encoding="utf-8"?>
<!-- Generator: Adobe Illustrator 25.0.1, SVG Export Plug-In . SVG Version: 6.00 Build 0)  -->
<svg version="1.1" id="Layer_1" xmlns="http://www.w3.org/2000/svg" xmlns:xlink="http://www.w3.org/1999/xlink" x="0px" y="0px"
	 viewBox="0 0 375.5 300.4" style="enable-background:new 0 0 375.5 300.4;" xml:space="preserve">
<style type="text/css">
	.st0{fill:#FFCB47;}
	.st1{fill:#000E50;}
	.st2{fill:#0E0C34;}
</style>
<g id="Group_257" transform="translate(-10 -13.125)">
	<rect id="Rectangle_384" x="76.3" y="230.5" class="st0" width="134.2" height="83"/>
	<rect id="Rectangle_385" x="212.6" y="230.5" class="st0" width="57.1" height="83"/>
	<path id="Path_735" class="st0" d="M10,138.6v7.1L73.6,158v-7.6L10,138.6z"/>
	<path id="Path_736" class="st0" d="M75.4,150.4v7.6L213,147.5v-6.9L75.4,150.4z"/>
	<path id="Path_737" class="st0" d="M10,137.1L74.6,149l138.4-9.3l-64.9-13L10,137.1z"/>
	<path id="Path_738" class="st1" d="M46.7,144.2c-0.2,0-0.4-0.1-0.4-0.3c0-0.2,0.1-0.4,0.3-0.4l128.2-11.8c0.2,0,0.4,0.1,0.4,0.3
		c0,0.2-0.1,0.4-0.3,0.4L46.7,144.2L46.7,144.2z"/>
	<path id="Path_739" class="st1" d="M133.3,145.4L133.3,145.4l-52.5-13.3c-0.2-0.1-0.3-0.3-0.3-0.5s0.3-0.3,0.5-0.3l52.4,13.3
		c0.2,0,0.3,0.2,0.3,0.4C133.6,145.3,133.4,145.4,133.3,145.4L133.3,145.4z"/>
	<path id="Path_740" class="st1" d="M97.8,145.2c-0.1,0-0.2,0-0.3-0.1c-0.1-0.1-0.2-0.4,0-0.5c0,0,0,0,0,0l7.5-6.9
		c0.1-0.1,0.4-0.1,0.5,0c0.1,0.1,0.1,0.4,0,0.5l-7.5,6.9C98,145.1,97.9,145.2,97.8,145.2z"/>
	<path id="Path_741" class="st1" d="M105.8,138.4l-0.3-0.1c-6.6-2-12.1-6.6-15.2-12.8c-1.5-3.1-1.3-6.8,0.4-9.8
		c1.4-2.4,3.2-3.3,5.4-2.8c2.8,0.7,5.9,3.5,7.9,7.1c3.1,5.5,3.7,12.1,1.8,18.1L105.8,138.4z M91,125.2c3,5.9,8.1,10.3,14.3,12.4
		c1.7-5.7,1.1-11.9-1.8-17.2c-2-3.5-4.8-6-7.5-6.7c-1.9-0.5-3.5,0.3-4.6,2.4C89.7,118.9,89.6,122.3,91,125.2L91,125.2z"/>
	<path id="Path_742" class="st1" d="M105.1,138.5l0.1-0.6c0-0.3,3.3-25.6,18.3-25.6h0.3c4.3,0.1,7,1,8.4,2.9
		c1.2,1.5,1.3,3.5,0.5,6.2c-0.8,3-2.4,5.7-4.5,7.9c-2.3,2.3-5,3.2-7.9,4.2L105.1,138.5z M123.5,113.1c-13.1,0-16.9,20.6-17.5,24.3
		l14-4.6c2.8-0.9,5.5-1.8,7.6-4c2-2.1,3.5-4.8,4.3-7.6c0.7-2.4,0.6-4.2-0.4-5.5c-1.2-1.7-3.9-2.5-7.8-2.6L123.5,113.1z"/>
	<path id="Path_743" class="st1" d="M105.6,138.4L105.6,138.4c-0.2,0-0.4-0.2-0.3-0.4l5.5-41.8c0-0.2,0.2-0.4,0.4-0.3
		c0.2,0,0.3,0.2,0.3,0.4L106,138C105.9,138.2,105.8,138.4,105.6,138.4z"/>
	<path id="Path_744" class="st1" d="M236.8,218.9c-0.2,0-0.3-0.1-0.3-0.3c-0.1-0.2,0-0.4,0.2-0.5c0,0,0,0,0,0l67.3-20.3
		c0.2-0.1,0.4,0,0.5,0.2c0.1,0.2,0,0.4-0.2,0.5c0,0,0,0-0.1,0l-67.3,20.3L236.8,218.9z"/>
	<path id="Path_745" class="st1" d="M198.3,211.3c-0.1,0-0.1,0-0.2,0L137.3,174c-0.2-0.1-0.2-0.3-0.1-0.5s0.3-0.2,0.5-0.1l60.8,37.3
		c0.2,0.1,0.2,0.3,0.1,0.5C198.6,211.3,198.5,211.4,198.3,211.3L198.3,211.3z"/>
	<path id="Path_746" class="st1" d="M216.5,208.8c-0.1,0-0.2-0.1-0.3-0.2l-38.8-56.4c-0.1-0.2-0.1-0.4,0.1-0.5c0,0,0,0,0,0
		c0.2-0.1,0.4-0.1,0.5,0.1c0,0,0,0,0,0l38.8,56.4c0.1,0.2,0.1,0.4-0.1,0.5c0,0,0,0,0,0C216.7,208.8,216.6,208.8,216.5,208.8z"/>
	<path id="Path_747" class="st1" d="M227.9,201.5L227.9,201.5c-0.3,0-0.4-0.2-0.4-0.4l16.5-69.7c0-0.2,0.2-0.3,0.4-0.3
		c0.2,0,0.3,0.2,0.3,0.4l-16.5,69.7C228.2,201.4,228.1,201.5,227.9,201.5L227.9,201.5z"/>
	<path id="Path_748" class="st1" d="M226.3,171.2L226.3,171.2c-0.2,0-0.4-0.2-0.4-0.4l2-126.8c0-0.2,0.2-0.4,0.4-0.4
		c0.2,0,0.4,0.2,0.4,0.4l-2,126.8C226.6,171.1,226.5,171.2,226.3,171.2L226.3,171.2L226.3,171.2z"/>
	<path id="Path_749" class="st1" d="M258.9,169.7c-0.1,0-0.2,0-0.2-0.1c-0.2-0.1-0.2-0.3-0.1-0.5c0,0,0,0,0,0l65.7-86.2
		c0.1-0.2,0.4-0.2,0.5-0.1c0.2,0.1,0.2,0.4,0.1,0.5l-65.7,86.2C259.1,169.7,259,169.7,258.9,169.7L258.9,169.7z"/>
	<path id="Path_750" class="st1" d="M311.3,139.3c-0.1,0-0.2,0-0.3-0.1c-0.1-0.1-0.1-0.4,0-0.5l3.3-2.9c0.2-0.1,0.4-0.1,0.5,0
		c0.1,0.1,0.1,0.4,0,0.5l-3.3,2.9C311.5,139.2,311.4,139.3,311.3,139.3z"/>
	<path id="Path_751" class="st1" d="M250.6,192.5c-0.1,0-0.2,0-0.3-0.1c-0.1-0.1-0.1-0.4,0-0.5c0,0,0,0,0,0l6.1-5.3
		c0.1-0.2,0.4-0.2,0.5,0c0.2,0.1,0.2,0.4,0,0.5c0,0-0.1,0.1-0.1,0.1l-6.1,5.3C250.7,192.5,250.7,192.5,250.6,192.5L250.6,192.5z
		 M262.7,181.9c-0.1,0-0.2,0-0.3-0.1c-0.1-0.1-0.1-0.4,0-0.5l6.1-5.3c0.1-0.1,0.4-0.2,0.5,0c0,0,0,0,0,0c0.1,0.1,0.1,0.4,0,0.5
		l-6.1,5.3C262.9,181.8,262.8,181.9,262.7,181.9L262.7,181.9z M274.9,171.2c-0.1,0-0.2,0-0.3-0.1c-0.1-0.1-0.1-0.4,0-0.5l6.1-5.3
		c0.2-0.1,0.4-0.1,0.5,0c0.1,0.2,0.1,0.4,0,0.5l-6.1,5.3C275,171.2,275,171.2,274.9,171.2L274.9,171.2z M287,160.6
		c-0.1,0-0.2,0-0.3-0.1c-0.1-0.1-0.1-0.4,0-0.5l6.1-5.3c0.2-0.1,0.4-0.1,0.5,0.1c0.1,0.1,0.1,0.4,0,0.5l-6.1,5.3
		C287.2,160.6,287.1,160.6,287,160.6L287,160.6z M299.2,150c-0.2,0-0.4-0.2-0.4-0.4c0-0.1,0-0.2,0.1-0.3l6.1-5.3
		c0.2-0.1,0.4-0.1,0.5,0c0.1,0.2,0.1,0.4,0,0.5l0,0l-6.1,5.3C299.4,149.9,299.3,150,299.2,150L299.2,150z"/>
	<path id="Path_752" class="st1" d="M241.2,200.8c-0.2,0-0.4-0.2-0.4-0.4c0-0.1,0-0.2,0.1-0.3l3.3-2.9c0.1-0.2,0.4-0.2,0.5,0
		c0.2,0.1,0.2,0.4,0,0.5c0,0-0.1,0.1-0.1,0.1l-3.4,2.9C241.3,200.8,241.3,200.8,241.2,200.8L241.2,200.8z"/>
	<path id="Path_753" class="st1" d="M171.6,88c-0.2,0-0.3-0.1-0.3-0.2l-1.7-4.1c-0.1-0.2,0-0.4,0.2-0.5c0,0,0,0,0,0
		c0.2-0.1,0.4,0,0.5,0.2c0,0,0,0,0,0l1.7,4.1c0.1,0.2,0,0.4-0.2,0.5c0,0,0,0,0,0C171.7,88,171.6,88,171.6,88z"/>
	<path id="Path_754" class="st1" d="M207.7,176.7c-0.2,0-0.3-0.1-0.3-0.2l-3.6-8.9c0-0.2,0.1-0.4,0.3-0.5c0.2,0,0.3,0,0.4,0.2
		l3.6,8.9c0.1,0.2,0,0.4-0.2,0.5c0,0,0,0,0,0L207.7,176.7z M200.5,158.9c-0.2,0-0.3-0.1-0.3-0.2l-3.6-8.9c-0.1-0.2,0-0.4,0.2-0.5
		c0.2-0.1,0.4,0,0.5,0.2l3.6,8.9c0.1,0.2,0,0.4-0.2,0.5c0,0,0,0,0,0C200.6,158.9,200.5,158.9,200.5,158.9L200.5,158.9z M193.3,141.2
		c-0.2,0-0.3-0.1-0.3-0.2l-3.6-8.9c-0.1-0.2,0-0.4,0.2-0.5c0.2-0.1,0.4,0,0.5,0.2c0,0,0,0,0,0l3.6,8.9c0.1,0.2,0,0.4-0.2,0.5
		c0,0,0,0,0,0L193.3,141.2z M186,123.4c-0.2,0-0.3-0.1-0.3-0.2l-3.6-8.9c-0.1-0.2,0-0.4,0.2-0.5c0.2-0.1,0.4,0,0.5,0.2c0,0,0,0,0,0
		l3.6,8.9c0.1,0.2,0,0.4-0.2,0.5c0,0,0,0,0,0L186,123.4z M178.8,105.7c-0.2,0-0.3-0.1-0.3-0.2l-3.6-8.9c-0.1-0.2,0-0.4,0.2-0.5
		c0.2-0.1,0.4,0,0.5,0.2l3.6,8.9c0.1,0.2,0,0.4-0.2,0.5c0,0,0,0,0,0L178.8,105.7z"/>
	<path id="Path_755" class="st1" d="M213,189.7c-0.1,0-0.3-0.1-0.3-0.2l-1.7-4.1c-0.1-0.2,0-0.4,0.2-0.5c0.2-0.1,0.4,0,0.5,0.2
		c0,0,0,0,0,0l1.7,4.1c0.1,0.2,0,0.4-0.2,0.5c0,0,0,0,0,0C213.1,189.7,213.1,189.7,213,189.7L213,189.7z"/>
	<path id="Path_756" class="st1" d="M161,158.6c-0.1,0-0.2,0-0.3-0.1l-3.2-3.1c-0.1-0.1-0.1-0.4,0-0.5c0.1-0.1,0.4-0.1,0.5,0l0,0
		l3.2,3.1c0.1,0.1,0.1,0.4,0,0.5C161.2,158.6,161.1,158.6,161,158.6L161,158.6z"/>
	<path id="Path_757" class="st1" d="M188.8,185.4c-0.1,0-0.2,0-0.3-0.1l-6.9-6.7c-0.1-0.1-0.1-0.4,0-0.5c0.1-0.1,0.4-0.1,0.5,0l0,0
		l6.9,6.7c0.1,0.1,0.2,0.4,0,0.5C189,185.4,188.9,185.4,188.8,185.4L188.8,185.4z M175,172c-0.1,0-0.2,0-0.3-0.1l-6.9-6.7
		c-0.1-0.1-0.1-0.4,0-0.5c0.1-0.1,0.4-0.1,0.5,0l6.9,6.7c0.1,0.1,0.1,0.4,0,0.5C175.2,172,175.1,172.1,175,172L175,172z"/>
	<path id="Path_758" class="st1" d="M199,195.3c-0.1,0-0.2,0-0.3-0.1l-3.2-3.1c-0.2-0.1-0.2-0.4-0.1-0.5s0.4-0.2,0.5-0.1
		c0,0,0,0,0,0l3.2,3.1c0.1,0.1,0.1,0.4,0,0.5c0,0,0,0,0,0C199.2,195.2,199.1,195.3,199,195.3z"/>
	<path id="Path_759" class="st1" d="M147,195.1c-1.7,0-3.1-1.4-3.1-3.1c0-1.7,1.4-3.1,3.1-3.1c1.7,0,3.1,1.4,3.1,3.1c0,0,0,0,0,0
		C150.1,193.7,148.7,195.1,147,195.1z M147,189.7c-1.3,0-2.3,1-2.3,2.3s1,2.3,2.3,2.3s2.3-1,2.3-2.3l0,0
		C149.3,190.8,148.3,189.7,147,189.7C147,189.7,147,189.7,147,189.7L147,189.7z"/>
	<path id="Path_760" class="st1" d="M262.7,200.2c-1.5,0-2.8-1.2-2.8-2.8s1.2-2.8,2.8-2.8c1.5,0,2.8,1.2,2.8,2.8l0,0
		C265.4,199,264.2,200.2,262.7,200.2z M262.7,195.4c-1.1,0-2,0.9-2,2c0,1.1,0.9,2,2,2c1.1,0,2-0.9,2-2c0-0.5-0.2-1-0.6-1.4
		C263.7,195.6,263.2,195.4,262.7,195.4z"/>
	<path id="Path_761" class="st1" d="M126.3,210.3c-2.3,0-4.2-1.9-4.2-4.2c0-2.3,1.9-4.2,4.2-4.2c2.3,0,4.2,1.9,4.2,4.2c0,0,0,0,0,0
		C130.5,208.4,128.6,210.3,126.3,210.3z M126.3,202.6c-1.9,0-3.5,1.5-3.5,3.5s1.5,3.5,3.5,3.5c1.9,0,3.5-1.5,3.5-3.5l0,0
		C129.7,204.2,128.2,202.6,126.3,202.6L126.3,202.6z"/>
	<path id="Path_762" class="st1" d="M354.2,133.7c-2,0-3.6-1.6-3.6-3.6s1.6-3.6,3.6-3.6s3.6,1.6,3.6,3.6S356.2,133.7,354.2,133.7
		L354.2,133.7z M354.2,127.3c-1.6,0-2.8,1.3-2.8,2.8c0,1.6,1.3,2.8,2.8,2.8c1.6,0,2.8-1.3,2.8-2.8
		C357.1,128.5,355.8,127.3,354.2,127.3C354.2,127.3,354.2,127.3,354.2,127.3L354.2,127.3z"/>
	<path id="Path_763" class="st1" d="M326.5,128.2c-3.3,0-6-2.7-6-6c0-3.3,2.7-6,6-6c3.3,0,6,2.7,6,6l0,0
		C332.5,125.6,329.8,128.2,326.5,128.2z M326.5,117c-2.9,0-5.2,2.3-5.2,5.2c0,2.9,2.3,5.2,5.2,5.2c2.9,0,5.2-2.3,5.2-5.2
		c0,0,0,0,0,0C331.7,119.4,329.4,117,326.5,117z"/>
	<path id="Path_764" class="st1" d="M298.6,71.9c-3.3,0-6-2.7-6-6c0-3.3,2.7-6,6-6s6,2.7,6,6c0,0,0,0,0,0
		C304.6,69.2,301.9,71.9,298.6,71.9z M298.6,60.7c-2.9,0-5.2,2.3-5.2,5.2c0,2.9,2.3,5.2,5.2,5.2c2.9,0,5.2-2.3,5.2-5.2c0,0,0,0,0,0
		C303.8,63,301.5,60.7,298.6,60.7L298.6,60.7z"/>
	<path id="Path_765" class="st1" d="M175.9,70.9c-3.3,0-6-2.7-6-6c0-3.3,2.7-6,6-6c3.3,0,6,2.7,6,6c0,0,0,0,0,0
		C181.8,68.3,179.1,70.9,175.9,70.9z M175.9,59.7c-2.9,0-5.2,2.3-5.2,5.2c0,2.9,2.3,5.2,5.2,5.2c2.9,0,5.2-2.3,5.2-5.2c0,0,0,0,0,0
		C181.1,62.1,178.7,59.8,175.9,59.7z"/>
	<path id="Path_766" class="st1" d="M215.6,25.1c-3.3,0-6-2.7-6-6c0-3.3,2.7-6,6-6s6,2.7,6,6c0,0,0,0,0,0
		C221.5,22.4,218.9,25.1,215.6,25.1z M215.6,13.9c-2.9,0-5.2,2.3-5.2,5.2c0,2.9,2.3,5.2,5.2,5.2s5.2-2.3,5.2-5.2l0,0
		C220.8,16.2,218.5,13.9,215.6,13.9z"/>
	<ellipse id="Ellipse_227" class="st0" cx="172.9" cy="208.4" rx="4.5" ry="4.5"/>
	<ellipse id="Ellipse_228" class="st0" cx="250.3" cy="179.5" rx="1.8" ry="1.8"/>
	<ellipse id="Ellipse_229" class="st0" cx="310.3" cy="156.2" rx="1.8" ry="1.8"/>
	<ellipse id="Ellipse_230" class="st0" cx="298.6" cy="90.3" rx="1.8" ry="1.8"/>
	<ellipse id="Ellipse_231" class="st0" cx="213" cy="60.3" rx="1.8" ry="1.8"/>
	<ellipse id="Ellipse_232" class="st0" cx="184.5" cy="78.7" rx="1.8" ry="1.8"/>
	<ellipse id="Ellipse_233" class="st0" cx="326.6" cy="202.3" rx="1.8" ry="1.8"/>
	<ellipse id="Ellipse_234" class="st0" cx="365.4" cy="253.5" rx="1.6" ry="1.6"/>
	<ellipse id="Ellipse_235" class="st0" cx="364.9" cy="96.9" rx="4.3" ry="4.3"/>
	<ellipse id="Ellipse_236" class="st0" cx="254.6" cy="105.9" rx="4.3" ry="4.3"/>
	<path id="Path_767" class="st2" d="M171.1,16.3l-0.8,8.8l-3.7,3.7l3.7,3.2l5.6,14.8l1-15.2l3.2-4l-4.2-2.9L171.1,16.3z"/>
	<path id="Path_768" class="st2" d="M336.4,52.3l-7.2,5.2l-5.2-0.4l0.1,4.9l-7.4,14l12.1-9.3l5.1-0.3l-0.6-5L336.4,52.3z"/>
	<path id="Path_769" class="st2" d="M343.8,177.9l-4.7,1.4l-2.7-1.2l-0.8,2.6l-6.4,5.9l8-2.7l2.7,0.8l0.6-2.7L343.8,177.9z"/>
	<path id="Path_770" class="st2" d="M149.1,169.7l-6.4-2.2l1.4-1.5l1.1-5.2l2,2.3l4.2,0.1l-2.3,3.2L149.1,169.7z M143.9,167.3
		l4.4,1.4v-2.6l1.6-2.1l-3.1-0.1l-1.3-1.4l-0.8,4L143.9,167.3z"/>
	<path id="Path_771" class="st2" d="M254.9,75.3l-0.2-1.2c-0.6-3.2-3.1-5.7-6.3-6.1l-1.2-0.2l1-0.5c2.9-1.5,4.4-4.7,3.9-7.9
		l-0.2-1.2l0.8,0.8c2.3,2.3,5.8,2.7,8.7,1.2l1-0.5l-0.5,1c-1.4,2.9-0.8,6.4,1.5,8.7l0.8,0.8l-1.2-0.2c-3.2-0.5-6.3,1.2-7.8,4.1
		L254.9,75.3z M249.5,67.5c2.8,0.7,5,2.8,5.8,5.6c1.5-2.4,4.2-3.8,7.1-3.8c-1.8-2.2-2.3-5.2-1.4-7.9c-2.7,1-5.7,0.6-8-1.2
		C253.2,63.1,251.8,65.8,249.5,67.5L249.5,67.5z"/>
	<path id="Path_772" class="st2" d="M365.9,184.9l-0.2-1.2c-0.3-1.8-1.7-3.1-3.5-3.4l-1.2-0.2l1-0.5c1.6-0.8,2.4-2.6,2.1-4.3
		l-0.2-1.2l0.8,0.8c1.3,1.2,3.2,1.5,4.8,0.7l1-0.5l-0.5,1c-0.8,1.6-0.4,3.5,0.8,4.8l0.8,0.8l-1.2-0.2c-1.8-0.2-3.5,0.7-4.3,2.3
		L365.9,184.9z M363.2,179.9c1.4,0.5,2.5,1.5,3,2.9c1.5,0.2,3-0.6,3.7-2c0.1-0.3,0.2-0.5,0.3-0.8c0.4-1.2,0-2.5-1-3.3
		c-1.4,0.4-2.9,0.2-4.1-0.6C365,177.6,364.3,178.9,363.2,179.9L363.2,179.9z"/>
	<path id="Path_773" class="st2" d="M212.4,126.5c-0.2,0-0.3-0.1-0.3-0.2c-0.4-0.8-0.8-1.6-1.4-2.3c-0.2,0.2-0.4,0.4-0.6,0.6
		c-0.6,0.6-2.8,2.5-5,1.7c-1.3-0.5-2.5-1.8-2.3-3c0.3-1.6,2.9-2.3,4.6-2.1c1.2,0.2,2.3,0.7,3.2,1.6c1.3-1.8,1.1-4.3-0.4-6
		c-0.7,0.9-1.6,1.6-2.6,2c-1.6,0.6-3.3,0.5-4.8-0.3c-0.7-0.3-1.1-1.1-0.8-1.8c0.1-0.2,0.2-0.4,0.4-0.5c1.1-1.2,2.6-1.8,4.2-1.9
		c1.3,0,2.5,0.5,3.5,1.3c0.1-0.2,0.2-0.4,0.2-0.6c0.2-1.2,0-2.4-0.6-3.5c-0.2-0.4-0.5-0.8-0.8-1.2c-0.9,1.4-2.4,2.4-4.1,2.5l0,0
		c-1.3,0-2.5-0.5-3.5-1.4c-0.4-0.4-0.6-0.9-0.6-1.4c0.1-0.5,0.3-1,0.8-1.3c1.2-0.9,2.8-1.3,4.3-1.2c1.1,0.2,2.2,0.7,3,1.5
		c0.5-0.9,0.8-1.8,0.7-2.8c-0.1-1.2-0.5-2.3-1.3-3.3c-0.7,1.1-1.8,1.9-3,2.3c-1.1,0.5-2.5,0.5-3.6-0.1c-0.9-0.6-1.3-1.7-1.2-2.8
		c0.4-1.8,3.3-2.3,5.1-2c0.9,0.2,1.8,0.7,2.5,1.3c0.4-0.8,0.5-1.7,0.5-2.5c-0.1-0.9-0.4-1.8-0.9-2.5c-0.4,0.5-0.8,1-1.2,1.3
		c-0.7,0.6-3.1,2.3-5.3,1.3c-1.2-0.5-2-1.7-2-3c0.2-0.7,0.6-1.3,1.2-1.7c1.4-0.9,3.2-1.1,4.8-0.7c0.9,0.3,1.7,0.8,2.4,1.4
		c0.6-1.1,0.8-2.4,0.4-3.6c-0.2-0.8-0.6-1.5-1.2-2.1c-1,1.4-2.5,2.4-4.1,2.8c-1.2,0.2-3.1,0.1-3.6-1c-0.2-0.5-0.2-1.1,0-1.6
		c0.5-1.1,1.4-2,2.5-2.5c1.3-0.4,2.6-0.2,3.8,0.4c0.5,0.2,0.9,0.5,1.3,0.9c0-0.1,0.1-0.2,0.2-0.3c0.7-1.1,1-2.5,0.6-3.8
		c-0.3-0.8-0.8-1.5-1.4-2c0,0.1-0.1,0.1-0.1,0.2c-1.4,1.7-3.5,2.6-5.7,2.5c-1,0.1-2-0.4-2.7-1.2c-0.3-1,0.1-2.1,0.9-2.7
		c1.6-1,3.6-1.3,5.4-0.7c0.7,0.2,1.3,0.5,2,0.8c0.5-1.4,0.3-2.9-0.4-4.2c-0.2-0.3-0.4-0.7-0.7-1c-1,1.6-2.8,2.7-4.7,2.7
		c-1.4-0.1-3.5-1-3.6-2.3s2-2.6,3.6-2.8c1.7-0.2,3.3,0.2,4.6,1.3c0.5-1,0.9-2.1,1.1-3.2c0-0.2,0.2-0.4,0.4-0.3s0.4,0.2,0.3,0.4
		c0,0,0,0,0,0.1c-0.2,1.3-0.6,2.5-1.2,3.6c0.4,0.4,0.7,0.8,0.9,1.3c0.8,1.5,1,3.4,0.3,5c0.8,0.6,1.4,1.5,1.8,2.4
		c0.4,1.5,0.2,3.1-0.6,4.4l-0.3,0.4c0.7,0.7,1.1,1.5,1.4,2.5c0.4,1.5,0.1,3.1-0.6,4.4c0.7,0.9,1.1,2,1.2,3.1
		c0.1,1.1-0.1,2.2-0.7,3.1c1,1.1,1.5,2.5,1.6,3.9c0.1,1.2-0.3,2.4-0.9,3.5c0.4,0.4,0.7,0.9,1,1.4c0.7,1.2,1,2.6,0.7,4
		c-0.1,0.3-0.2,0.7-0.3,1c0.6,0.6,1.1,1.4,1.4,2.3c0.5,1.7,0.1,3.5-0.9,4.9c0.7,0.8,1.2,1.7,1.6,2.6
		C212.7,126.3,212.6,126.5,212.4,126.5C212.4,126.6,212.4,126.6,212.4,126.5z M206.8,121.9c-1.5,0-3.2,0.6-3.3,1.5s0.9,1.8,1.8,2.1
		c1.8,0.6,3.7-1,4.3-1.5c0.1-0.1,0.3-0.3,0.6-0.6c-0.7-0.8-1.7-1.3-2.8-1.5C207.1,121.9,207,121.9,206.8,121.9L206.8,121.9z
		 M206.6,115L206.6,115c-1.4,0-2.7,0.6-3.7,1.6c-0.2,0.2-0.3,0.4-0.3,0.7c0,0.2,0.2,0.4,0.5,0.5c1.3,0.6,2.8,0.7,4.2,0.2
		c0.9-0.4,1.7-1,2.3-1.9C208.8,115.5,207.7,115.1,206.6,115L206.6,115z M205,108.3c-1.1,0-2.2,0.3-3.1,1c-0.3,0.2-0.4,0.5-0.5,0.8
		c0,0.3,0.2,0.7,0.4,0.9c0.8,0.7,1.8,1.1,2.9,1.2c1.4-0.2,2.7-1,3.5-2.2l0.1-0.2C207.4,108.8,206.2,108.3,205,108.3L205,108.3z
		 M204.4,101.1c-1.5,0-3,0.6-3.2,1.5c-0.1,0.8,0.3,1.5,0.9,2c0.9,0.5,2,0.5,2.9,0c1.1-0.4,2.1-1.2,2.7-2.2c-0.6-0.6-1.4-1-2.3-1.2
		C205,101.2,204.7,101.2,204.4,101.1L204.4,101.1z M203.6,94.6c-1,0-2,0.3-2.9,0.8c-0.5,0.2-0.8,0.7-0.9,1.2
		c-0.1,0.8,0.7,1.8,1.6,2.2c1.9,0.9,4.1-0.8,4.5-1.2c0.5-0.4,0.9-0.9,1.2-1.4c-0.6-0.7-1.4-1.1-2.2-1.4
		C204.4,94.7,204,94.7,203.6,94.6L203.6,94.6z M202.9,87.9c-0.3,0-0.7,0.1-1,0.2c-0.9,0.4-1.7,1.1-2.1,2.1c-0.2,0.3-0.2,0.7-0.1,1
		c0.3,0.6,1.7,0.8,2.8,0.6c1.5-0.4,2.8-1.2,3.7-2.4c-0.4-0.3-0.8-0.6-1.2-0.8C204.4,88.1,203.6,87.9,202.9,87.9L202.9,87.9z
		 M201.6,81.1c-1-0.1-1.9,0.2-2.7,0.8c-0.5,0.5-1,1.4-0.7,1.8s0.9,0.7,2.1,0.8c1.9,0.2,3.8-0.6,5-2.1l0.1-0.2
		C204.3,81.5,203,81.1,201.6,81.1L201.6,81.1z M200.8,74.5c-0.2,0-0.5,0-0.7,0.1c-1.4,0.2-3,1.2-2.9,2.1s1.6,1.5,2.9,1.6
		c1.7-0.1,3.3-1,4.1-2.5C203.2,75,202.1,74.6,200.8,74.5L200.8,74.5z"/>
	<path id="Path_774" class="st2" d="M251.6,172.2L251.6,172.2c-0.3,0-0.4-0.2-0.4-0.4l0,0c0.1-0.8,0.1-1.6-0.1-2.3
		c-1.5,0.7-3.2,0.9-4.8,0.6c-1.2-0.3-2.8-1.2-2.9-2.4c0-0.6,0.3-1.1,0.8-1.5c0.9-0.8,2.1-1.2,3.3-1.2c1.3,0.2,2.5,0.9,3.2,2
		c0.3,0.4,0.6,0.9,0.8,1.4l0.3-0.2c1.2-0.7,1.9-1.9,2.2-3.2c0.1-0.8,0-1.7-0.4-2.4l-0.2,0.1c-2,1-4.3,0.9-6.2-0.3
		c-1.2-0.7-1.9-1.5-1.9-2.2c0-0.9,1-1.8,2-2c1.9-0.3,3.8,0.4,5.1,1.7c0.5,0.5,1,1,1.4,1.6c1-1.1,1.6-2.5,1.5-4c0-0.3-0.1-0.7-0.1-1
		c-1.3,0.8-2.9,1-4.4,0.6h-0.1c-0.3-0.1-0.7-0.2-1-0.4c-1.2-0.7-2.7-2.4-2.2-3.6s3-1.4,4.4-1c1.6,0.5,3,1.8,3.6,3.4
		c0.7-0.4,1.2-1,1.7-1.6c0.6-1,0.7-2.3,0.2-3.4c-0.3,0.1-0.5,0.2-0.8,0.3c-0.8,0.3-3.6,1-5.3-0.6c-1-1-1.5-2.7-0.8-3.7
		c0.9-1.3,3.6-0.8,5.1,0.1c1,0.7,1.8,1.7,2.2,2.8c2-1.1,3-3.4,2.3-5.6c-1,0.5-2.1,0.8-3.3,0.7c-1.7-0.2-3.2-1-4.2-2.3
		c-0.3-0.4-0.4-0.9-0.3-1.3c0.2-0.4,0.5-0.8,1-1c1.5-0.6,3.2-0.6,4.6,0.1c1.2,0.6,2.1,1.5,2.6,2.7c0.2-0.1,0.3-0.3,0.4-0.5
		c0.7-1,1-2.2,0.9-3.4c0-0.5-0.1-0.9-0.2-1.4h-0.1c-1.4,0.9-3.2,1.1-4.8,0.5c-1.2-0.6-2-1.6-2.5-2.8c-0.2-0.5-0.2-1.1,0.1-1.6
		c0.3-0.4,0.7-0.8,1.3-0.8c1.5-0.3,3.1,0,4.3,0.8c1,0.6,1.7,1.6,2.1,2.7c0.8-0.6,1.5-1.3,1.9-2.2c0.5-1.1,0.5-2.3,0.3-3.5
		c-1.1,0.7-2.4,0.9-3.7,0.8c-1.3,0-2.4-0.6-3.1-1.7c-0.5-0.9-0.5-2.1,0.1-3c1.2-1.4,4-0.7,5.4,0.4c0.8,0.6,1.4,1.4,1.7,2.3
		c0.7-0.5,1.2-1.3,1.5-2.1c0.3-0.9,0.4-1.8,0.3-2.7c-0.5,0.3-1.1,0.5-1.7,0.7c-0.9,0.2-3.8,0.8-5.4-1.2c-0.9-1-1.1-2.3-0.5-3.5
		c0.4-0.6,1.1-0.9,1.8-1c1.7-0.2,3.3,0.4,4.6,1.4c0.7,0.6,1.2,1.4,1.6,2.3c1-0.7,1.7-1.8,2-3.1c0.1-0.8,0.1-1.6-0.1-2.3
		c-1.5,0.7-3.2,0.9-4.8,0.6c-1.2-0.3-2.8-1.2-2.9-2.4c0-0.6,0.3-1.1,0.8-1.5c0.9-0.8,2.1-1.2,3.4-1.2c1.3,0.2,2.4,0.9,3.2,1.9
		c0.3,0.4,0.6,0.9,0.8,1.4l0.3-0.2c1.2-0.7,2-1.9,2.2-3.2c0.1-0.8,0-1.7-0.4-2.4l-0.2,0.1c-2,1-4.3,0.9-6.2-0.3
		c-1.2-0.6-1.9-1.5-1.9-2.2c0-0.9,1-1.8,2-2.1c1.9-0.3,3.8,0.4,5.1,1.7c0.5,0.5,1,1,1.4,1.6c1-1.1,1.6-2.5,1.5-4
		c0-0.4-0.1-0.8-0.2-1.2c-1.6,1.1-3.7,1.2-5.4,0.4c-1.2-0.7-2.7-2.4-2.2-3.6s3-1.4,4.4-1c1.6,0.5,2.9,1.7,3.5,3.2
		c0.9-0.7,1.7-1.5,2.3-2.4c0.1-0.2,0.3-0.2,0.5-0.1c0.2,0.1,0.2,0.3,0.1,0.5c0,0,0,0,0,0c-0.7,1.1-1.6,2-2.7,2.7
		c0.2,0.5,0.3,1,0.3,1.5c0.1,1.8-0.6,3.5-1.9,4.7c0.5,0.9,0.7,1.9,0.5,2.9c-0.3,1.5-1.2,2.9-2.5,3.7c-0.1,0.1-0.3,0.2-0.4,0.3
		c0.3,0.9,0.4,1.9,0.2,2.8c-0.3,1.5-1.2,2.8-2.5,3.7c0.2,1.1,0.1,2.3-0.3,3.3c-0.4,1-1.1,1.9-2,2.5c0.4,1.4,0.3,2.9-0.2,4.2
		c-0.5,1.1-1.3,2-2.3,2.7c0.2,0.6,0.2,1.2,0.3,1.8c0.1,1.4-0.2,2.8-1.1,3.9c-0.2,0.3-0.5,0.5-0.7,0.7c0.3,0.9,0.4,1.8,0.2,2.7
		c-0.3,1.7-1.4,3.2-2.9,4c0.5,1.4,0.4,2.9-0.3,4.2c-0.6,0.8-1.3,1.4-2.1,1.9c0.1,0.4,0.2,0.9,0.2,1.3c0.1,1.7-0.6,3.4-1.9,4.6
		c0.5,0.9,0.7,1.9,0.5,3c-0.3,1.5-1.2,2.9-2.5,3.7l-0.4,0.3c0.3,0.9,0.4,1.9,0.2,2.8C252,172,251.8,172.2,251.6,172.2L251.6,172.2z
		 M247.2,165.7c-0.9,0-1.8,0.4-2.5,1c-0.3,0.2-0.5,0.5-0.5,0.9c0,0.7,1.2,1.4,2.3,1.7c1.5,0.3,3,0.1,4.4-0.5
		c-0.2-0.5-0.4-0.9-0.8-1.3c-0.6-0.9-1.6-1.5-2.7-1.7L247.2,165.7z M248.2,158.7c-0.2,0-0.5,0-0.7,0.1c-0.7,0.2-1.5,0.8-1.5,1.3
		s0.5,1,1.5,1.6c1.7,1,3.7,1.1,5.5,0.3l0.2-0.1c-0.4-0.6-0.8-1.1-1.3-1.5C250.9,159.4,249.6,158.9,248.2,158.7L248.2,158.7z
		 M250.3,152.5c-1,0-1.9,0.3-2.1,0.8c-0.3,0.7,0.8,2.1,1.9,2.7c0.3,0.2,0.5,0.3,0.8,0.3h0.1c1.4,0.3,2.8,0.1,4-0.6
		c-0.5-1.4-1.7-2.6-3.2-3C251.3,152.6,250.8,152.5,250.3,152.5L250.3,152.5z M252.6,146.3c-0.5-0.1-1,0.1-1.4,0.5
		c-0.5,0.7,0,2,0.7,2.7c1.4,1.4,3.8,0.7,4.5,0.5c0.3-0.1,0.5-0.2,0.8-0.3c-0.3-1-1-1.9-1.9-2.5C254.5,146.6,253.6,146.3,252.6,146.3
		L252.6,146.3z M255.5,140.1c-0.6,0-1.2,0.1-1.8,0.3c-0.2,0.1-0.5,0.3-0.6,0.5c0,0.3,0.1,0.5,0.2,0.7c0.9,1.1,2.2,1.8,3.7,2
		c1,0.1,2-0.2,2.9-0.7c-0.5-1.1-1.3-1.9-2.3-2.4C257,140.2,256.2,140.1,255.5,140.1L255.5,140.1z M256.8,133.3c-0.3,0-0.6,0-0.9,0.1
		c-0.3,0-0.6,0.2-0.8,0.5c-0.1,0.3-0.1,0.7,0,1c0.4,1,1.1,1.8,2.1,2.3c1.4,0.5,2.9,0.3,4.1-0.5l0.2-0.1c-0.3-1-1-1.9-1.9-2.4
		C258.8,133.6,257.8,133.3,256.8,133.3L256.8,133.3z M259.6,126.6c-0.5,0-1,0.1-1.4,0.5c-0.4,0.7-0.4,1.5,0,2.2
		c0.6,0.8,1.6,1.3,2.6,1.3c1.2,0.1,2.4-0.2,3.4-0.8c-0.3-0.8-0.8-1.6-1.5-2.1C261.7,127,260.7,126.6,259.6,126.6L259.6,126.6z
		 M261.4,120.3h-0.5c-0.5,0-1,0.3-1.3,0.7c-0.3,0.9-0.2,1.9,0.5,2.6c1.3,1.6,4.1,1,4.6,0.9c0.6-0.2,1.2-0.4,1.7-0.7
		c-0.3-0.9-0.7-1.6-1.4-2.2C263.9,120.8,262.7,120.3,261.4,120.3L261.4,120.3z M264.8,114.2c-0.9,0-1.8,0.4-2.5,1
		c-0.3,0.2-0.5,0.5-0.5,0.9c0,0.7,1.2,1.4,2.3,1.7c1.5,0.3,3,0.1,4.4-0.6c-0.2-0.5-0.4-0.9-0.8-1.3c-0.6-0.9-1.6-1.5-2.7-1.7
		L264.8,114.2z M265.8,107.3c-0.2,0-0.5,0-0.7,0.1c-0.7,0.2-1.5,0.8-1.5,1.3s0.5,1,1.6,1.6c1.7,1,3.7,1.1,5.5,0.3l0.2-0.1
		c-0.4-0.6-0.8-1.1-1.3-1.5C268.6,108,267.2,107.5,265.8,107.3L265.8,107.3z M268,101.1c-1,0-1.9,0.3-2.1,0.8
		c-0.3,0.7,0.8,2.1,1.9,2.7c1.6,0.7,3.4,0.5,4.8-0.5c-0.6-1.4-1.7-2.4-3.1-2.9C268.9,101.2,268.5,101.1,268,101.1L268,101.1z"/>
	<path id="Path_775" class="st2" d="M320.1,176.1c-0.1,0-0.2-0.1-0.3-0.2c-0.1-0.2-0.1-0.4,0.1-0.5c0,0,0,0,0,0
		c0.6-0.5,1.1-1.1,1.5-1.8c-1.6-0.5-3-1.5-4-2.8c-0.6-1-1.3-2.8-0.5-3.7c0.4-0.4,1-0.6,1.5-0.6c1.2,0,2.4,0.5,3.3,1.4
		c0.8,1,1.2,2.3,1,3.6c-0.1,0.5-0.2,1.1-0.3,1.6l0.3,0.1c1.3,0.3,2.7-0.1,3.8-0.9c0.6-0.5,1.1-1.3,1.3-2h-0.2
		c-2.1-0.6-3.8-2.2-4.4-4.3c-0.5-0.9-0.4-2,0.1-2.9c0.8-0.7,2-0.7,2.9-0.2c1.6,1.1,2.5,2.8,2.7,4.7c0.1,0.7,0.1,1.4,0,2.1
		c1.5-0.1,2.9-0.8,3.8-2c0.2-0.2,0.4-0.5,0.5-0.8c-1.5-0.3-2.8-1.2-3.7-2.5v-0.1c-0.2-0.3-0.3-0.6-0.5-1c-0.5-1.4-0.4-3.6,0.8-4.2
		s3.2,0.9,4,2.2c0.9,1.5,1,3.3,0.4,4.9c0.8,0.1,1.5,0.1,2.3-0.1c1.1-0.4,2-1.2,2.4-2.3c-0.3-0.1-0.5-0.2-0.8-0.3
		c-0.8-0.3-3.4-1.7-3.5-4c-0.1-1.4,0.7-3,1.9-3.3c1.6-0.3,3.2,1.8,3.7,3.5c0.3,1.2,0.2,2.4-0.3,3.5c2.2,0.5,4.5-0.6,5.5-2.6
		c-1.1-0.3-2.1-0.9-2.9-1.7c-1.1-1.3-1.7-2.9-1.6-4.6c0-0.8,0.6-1.4,1.4-1.4c0.2,0,0.5,0,0.7,0.1c1.5,0.6,2.7,1.7,3.3,3.2
		c0.5,1.2,0.5,2.5,0.1,3.7c0.2,0,0.4,0,0.6,0c1.2-0.2,2.2-0.9,2.9-1.9c0.3-0.4,0.6-0.7,0.8-1.2h-0.1c-1.7-0.3-3.1-1.3-3.9-2.8
		c-0.5-1.2-0.5-2.5,0-3.7c0.2-0.5,0.6-0.9,1.1-1.2c0.5-0.1,1.1-0.1,1.5,0.2c1.3,0.8,2.2,2.1,2.7,3.5c0.3,1.1,0.2,2.3-0.2,3.4
		c1,0.1,2,0,2.9-0.4c1.1-0.5,2-1.3,2.6-2.4c-1.3-0.3-2.4-0.9-3.3-1.9c-0.9-0.9-1.4-2.1-1.2-3.4c0.2-1.1,1-1.9,2.1-2.1
		c1.8-0.2,3.4,2.1,3.8,4c0.2,0.9,0.1,1.9-0.3,2.8c0.9,0.1,1.7-0.1,2.5-0.5c0.8-0.4,1.5-1,2-1.8c-0.6-0.1-1.2-0.3-1.7-0.6
		c-0.8-0.4-3.3-2-3.2-4.5c0-1.3,0.8-2.5,2-3c0.7-0.1,1.5,0.1,2,0.5c1.4,1,2.2,2.5,2.5,4.2c0.1,0.9,0,1.9-0.4,2.8
		c1.3,0.1,2.5-0.2,3.5-1c0.6-0.5,1.1-1.1,1.5-1.8c-1.6-0.5-3-1.5-4-2.8c-0.6-1-1.3-2.8-0.5-3.7c0.4-0.4,1-0.6,1.5-0.6l0,0
		c1.2,0,2.4,0.5,3.2,1.4c0.8,1,1.2,2.3,1,3.6c0,0.5-0.2,1.1-0.3,1.6h0.3c1.3,0.3,2.7-0.1,3.8-0.9c0.6-0.5,1.1-1.3,1.3-2h-0.2
		c-2.1-0.6-3.8-2.3-4.4-4.4c-0.5-0.9-0.5-2,0-2.9c0.8-0.6,2-0.7,2.9-0.2c1.6,1.1,2.6,2.8,2.7,4.7c0.1,0.7,0.1,1.4,0,2.1
		c1.5-0.1,2.9-0.8,3.8-1.9c0.2-0.3,0.5-0.6,0.6-1c-1.9-0.3-3.5-1.6-4.3-3.4c-0.4-1.4-0.4-3.6,0.8-4.2s3.2,0.9,4,2.2
		c0.8,1.4,1,3.1,0.5,4.7c1.1,0.1,2.3,0.1,3.4-0.2c0.2-0.1,0.4,0.1,0.5,0.3c0.1,0.2-0.1,0.4-0.3,0.5c0,0,0,0,0,0
		c-1.3,0.3-2.6,0.4-3.8,0.2c-0.2,0.5-0.5,0.9-0.8,1.3c-1.1,1.3-2.7,2.2-4.5,2.2l0,0c-0.3,1-0.8,1.9-1.6,2.5c-1.2,1-2.8,1.4-4.4,1.1
		l-0.5-0.1c-0.4,0.9-1,1.6-1.8,2.2c-1.2,0.9-2.8,1.3-4.3,1.1c-0.6,1-1.4,1.8-2.4,2.3c-1,0.5-2.1,0.7-3.1,0.6c-0.6,1.3-1.7,2.3-3,3
		c-1.1,0.5-2.3,0.6-3.5,0.4c-0.3,0.5-0.6,1-1,1.5c-0.8,1.1-2,1.9-3.4,2.1c-0.3,0-0.7,0-1,0c-0.4,0.8-0.9,1.6-1.6,2.2
		c-1.4,1.1-3.2,1.4-4.9,1c-0.5,1.4-1.6,2.4-3,2.9c-0.9,0.2-1.9,0.2-2.8,0c-0.2,0.4-0.4,0.8-0.7,1.2c-1.1,1.3-2.8,2.2-4.5,2.2
		c-0.3,1-0.8,1.9-1.6,2.5c-1.2,1-2.8,1.4-4.4,1.1l-0.5-0.1c-0.4,0.9-1,1.6-1.8,2.2C320.3,176.1,320.2,176.1,320.1,176.1z
		 M318.4,167.2L318.4,167.2c-0.4,0-0.7,0.1-1,0.3c-0.5,0.5-0.1,1.9,0.6,2.8c0.9,1.2,2.2,2.1,3.6,2.6c0.2-0.5,0.3-1,0.3-1.5
		c0.1-1.1-0.2-2.2-0.8-3.1C320.4,167.7,319.5,167.3,318.4,167.2L318.4,167.2z M324.5,163.1c-0.3,0-0.6,0.1-0.8,0.3
		c-0.3,0.7-0.3,1.5,0.1,2.2c0.6,1.9,2,3.3,3.9,3.9h0.2c0.1-0.7,0.1-1.3,0-2c-0.1-1.7-0.9-3.2-2.2-4.1
		C325.3,163.2,324.9,163.1,324.5,163.1L324.5,163.1z M330.3,159.6c-0.1,0-0.2,0-0.3,0.1c-0.7,0.3-0.8,2.1-0.4,3.3
		c0.1,0.3,0.2,0.6,0.4,0.8v0.1c0.8,1.1,2,1.9,3.4,2.2c0.6-1.4,0.4-3.1-0.3-4.4C332.4,160.7,331.4,159.9,330.3,159.6L330.3,159.6z
		 M336.8,156.9h-0.2c-0.8,0.2-1.3,1.5-1.3,2.5c0.1,1.9,2.3,3.1,3,3.4c0.3,0.1,0.5,0.2,0.8,0.3c0.4-1,0.5-2.1,0.3-3.2
		C339,158.6,337.8,157,336.8,156.9L336.8,156.9z M342.2,153.8c-0.1,0-0.2,0-0.3,0c-0.2,0.2-0.3,0.4-0.3,0.7c-0.1,1.5,0.4,2.9,1.4,4
		c0.7,0.7,1.6,1.2,2.6,1.5c0.4-1.1,0.3-2.3-0.1-3.4c-0.6-1.2-1.6-2.2-2.9-2.7C342.5,153.8,342.4,153.8,342.2,153.8L342.2,153.8z
		 M348.4,150c-0.1,0-0.1,0-0.2,0c-0.3,0.2-0.5,0.4-0.6,0.7c-0.4,1-0.4,2.1,0,3.1c0.7,1.3,1.9,2.2,3.4,2.4h0.2c0.4-1,0.5-2,0.3-3.1
		c-0.4-1.3-1.2-2.4-2.3-3.1C348.8,150,348.6,150,348.4,150L348.4,150z M355.1,147H355c-0.8,0.2-1.3,0.8-1.5,1.6c-0.1,1,0.3,2,1,2.7
		c0.8,0.9,1.9,1.5,3.1,1.7c0.3-0.8,0.4-1.7,0.3-2.6C357.6,148.8,356.3,147,355.1,147L355.1,147z M360.3,143.4H360
		c-0.8,0.2-1.4,1.3-1.4,2.3c-0.1,2.1,2.3,3.5,2.8,3.8c0.6,0.3,1.1,0.5,1.8,0.6c0.4-0.8,0.5-1.7,0.4-2.6c-0.2-1.5-1-2.8-2.2-3.7
		C361.1,143.6,360.7,143.4,360.3,143.4L360.3,143.4z M366.1,141L366.1,141c-0.4,0-0.7,0.1-1,0.3c-0.5,0.5-0.1,1.9,0.6,2.8
		c0.9,1.2,2.2,2.1,3.6,2.5c0.2-0.5,0.3-1,0.3-1.5c0.2-1.1-0.1-2.2-0.8-3.1C368.1,141.4,367.1,141,366.1,141L366.1,141z M372.1,136.9
		c-0.3,0-0.6,0.1-0.8,0.3c-0.3,0.7-0.3,1.5,0.1,2.2c0.6,1.9,2,3.3,3.9,3.9h0.2c0.1-0.7,0.1-1.3,0-2c-0.1-1.7-0.9-3.2-2.3-4.1
		C372.9,137,372.5,136.9,372.1,136.9L372.1,136.9z M377.9,133.4c-0.1,0-0.2,0-0.3,0.1c-0.7,0.3-0.8,2.1-0.4,3.3
		c0.7,1.6,2.1,2.6,3.8,2.9c0.5-1.4,0.3-2.9-0.4-4.2C380,134.4,379,133.7,377.9,133.4L377.9,133.4z"/>
</g>
</svg>
