<svg xmlns="http://www.w3.org/2000/svg" width="100%" height="100%" viewBox="0 0 299.771 322.05">
  <g id="Group_259" data-name="Group 259" transform="translate(-32.96 -422.05)">
    <rect id="Rectangle_395" data-name="Rectangle 395" width="56.099" height="80.144" transform="translate(32.96 663.956)" fill="#e8eef2"/>
    <rect id="Rectangle_396" data-name="Rectangle 396" width="56.099" height="100.176" transform="translate(114.181 643.924)" fill="#e8eef2"/>
    <rect id="Rectangle_397" data-name="Rectangle 397" width="56.099" height="136.244" transform="translate(195.402 607.856)" fill="#ffcb47"/>
    <rect id="Rectangle_398" data-name="Rectangle 398" width="56.099" height="160.289" transform="translate(276.631 583.811)" fill="#ffcb47"/>
    <path id="Path_877" data-name="Path 877" d="M241.5,477.286l24.269-5.236-19.162,17Z" transform="translate(-28.943 -50)" fill="#ffcb47"/>
    <path id="Path_878" data-name="Path 878" d="M199.83,542.564l4.633-1.774s0,5.46-1.55,6.278S199.83,542.564,199.83,542.564Z" transform="translate(-23.16 -59.54)" fill="#8f8f8f"/>
    <path id="Path_879" data-name="Path 879" d="M64.041,762.905a2.024,2.024,0,0,0,.319.62,2.9,2.9,0,0,0,.491.534,2.058,2.058,0,0,0,1.283.491,2.584,2.584,0,0,0,1.352-.422c.207-.138.4-.319.586-.474a3.51,3.51,0,0,0,.5-.612h0a.819.819,0,1,1,1.059,1.188c-.284.155-.543.327-.8.491l-.422.215a2.783,2.783,0,0,1-.422.215,5.515,5.515,0,0,1-.922.31,4.088,4.088,0,0,1-.982.121A3.711,3.711,0,0,1,64.2,765a6.441,6.441,0,0,1-1.5-1.318v-.052a.784.784,0,1,1,1.206-1A.81.81,0,0,1,64.041,762.905Z" transform="translate(-4.099 -90.286)" fill="#8f8f8f"/>
    <path id="Path_880" data-name="Path 880" d="M82.249,763.181a2.024,2.024,0,0,0,.319.62,3.254,3.254,0,0,0,.5.534,2.085,2.085,0,0,0,1.275.491A2.514,2.514,0,0,0,85.7,764.4a5.042,5.042,0,0,0,.586-.474c.172-.2.344-.4.491-.6h0a.861.861,0,0,1,1.343.947.948.948,0,0,1-.276.25c-.284.155-.543.319-.81.491l-.422.215a3.225,3.225,0,0,1-.422.215,5.429,5.429,0,0,1-.913.31,3.742,3.742,0,0,1-.982.112,3.677,3.677,0,0,1-1.895-.577,7.322,7.322,0,0,1-.775-.586,5.269,5.269,0,0,1-.715-.732l-.052-.06a.784.784,0,0,1,.112-1.094.766.766,0,0,1,1.094.1.749.749,0,0,1,.181.267Z" transform="translate(-6.624 -90.329)" fill="#8f8f8f"/>
    <path id="Path_881" data-name="Path 881" d="M68.576,773.507a7.417,7.417,0,0,1,.784-.723,7.557,7.557,0,0,1,.861-.6,10.813,10.813,0,0,1,1.722-.947,9.628,9.628,0,0,1,3.858-.784h1.464l.491.069a10.969,10.969,0,0,1,1.929.448l.482.181.465.215a6.028,6.028,0,0,1,.861.534c.146.095.284.215.431.327a3.289,3.289,0,0,1,.4.379,4.447,4.447,0,0,1,.362.439,1.814,1.814,0,0,1,.172.25,1.72,1.72,0,0,1,.172.319.813.813,0,0,1-1.559.465v-.112a.246.246,0,0,0-.052-.172,3.2,3.2,0,0,0-.172-.344,3.449,3.449,0,0,0-.491-.646,4.752,4.752,0,0,0-1.421-.982,9.17,9.17,0,0,0-3.548-.732,7.456,7.456,0,0,0-3.5.861,6.889,6.889,0,0,0-1.473,1.016,7.213,7.213,0,0,0-.62.637,4.051,4.051,0,0,0-.491.68.706.706,0,0,1-.965.284.724.724,0,0,1-.293-.965l.1-.146Z" transform="translate(-4.914 -91.415)" fill="#8f8f8f"/>
    <path id="Path_882" data-name="Path 882" d="M158.326,740.217a2.093,2.093,0,0,0,.319.612,2.894,2.894,0,0,0,.491.534,2.007,2.007,0,0,0,1.283.491,2.584,2.584,0,0,0,1.352-.422c.207-.138.4-.319.594-.474a3.184,3.184,0,0,0,.491-.611h0a.818.818,0,1,1,1.335.947.74.74,0,0,1-.276.241c-.284.155-.543.327-.8.491l-.422.224a3.815,3.815,0,0,1-.422.207,4.834,4.834,0,0,1-.922.31,4.091,4.091,0,0,1-.982.121,3.712,3.712,0,0,1-1.886-.586,5.165,5.165,0,0,1-.784-.586,5.664,5.664,0,0,1-.706-.723l-.052-.06a.784.784,0,1,1,1.361-.68Z" transform="translate(-17.181 -87.138)" fill="#8f8f8f"/>
    <path id="Path_883" data-name="Path 883" d="M176.543,740.488a2.5,2.5,0,0,0,.319.62,3.252,3.252,0,0,0,.5.534,2.1,2.1,0,0,0,1.283.491,2.584,2.584,0,0,0,1.352-.422,6.212,6.212,0,0,0,.586-.482c.172-.2.344-.4.491-.6h0a.822.822,0,1,1,1.068,1.2c-.284.155-.543.327-.81.491l-.422.215a3.233,3.233,0,0,1-.422.215,5.429,5.429,0,0,1-.913.31,3.737,3.737,0,0,1-.982.112,3.677,3.677,0,0,1-1.869-.594,6.321,6.321,0,0,1-.775-.586,5.262,5.262,0,0,1-.715-.732l-.052-.06a.784.784,0,0,1,.112-1.094.767.767,0,0,1,1.094.1A.809.809,0,0,1,176.543,740.488Z" transform="translate(-19.715 -87.177)" fill="#8f8f8f"/>
    <path id="Path_884" data-name="Path 884" d="M162.865,750.847a7.409,7.409,0,0,1,.784-.723c.267-.207.534-.413.818-.6a10.811,10.811,0,0,1,1.722-.947,9.937,9.937,0,0,1,3.858-.784,7.452,7.452,0,0,1,.982.043h.482l.491.069a9.627,9.627,0,0,1,1.929.448l.482.172.465.215a6.3,6.3,0,0,1,.861.534c.146.095.284.215.431.327a3.284,3.284,0,0,1,.4.379c.129.138.25.284.37.439a1.155,1.155,0,0,1,.164.25,1.721,1.721,0,0,1,.172.319.818.818,0,0,1-1.559.474s0-.069,0-.121a.236.236,0,0,0-.052-.172,2.655,2.655,0,0,1-.164-.344,4.315,4.315,0,0,0-.5-.646,4.919,4.919,0,0,0-1.421-.982,9.146,9.146,0,0,0-3.548-.732,7.4,7.4,0,0,0-3.488.861,7.062,7.062,0,0,0-1.481,1.016,8.621,8.621,0,0,0-.62.637,4.056,4.056,0,0,0-.491.68.715.715,0,0,1-1.249-.68.861.861,0,0,1,.095-.146Z" transform="translate(-17.999 -88.27)" fill="#8f8f8f"/>
    <path id="Path_885" data-name="Path 885" d="M254.059,703.195a5.786,5.786,0,0,1,.715-.732,7.322,7.322,0,0,1,.775-.586,3.591,3.591,0,0,1,2.876-.456,4.748,4.748,0,0,1,.913.31,3.191,3.191,0,0,1,.422.207l.422.224c.267.164.525.336.81.491a.821.821,0,1,1-.792,1.438.8.8,0,0,1-.267-.241h0c-.146-.215-.319-.4-.491-.611a2.525,2.525,0,0,0-.586-.474,2.583,2.583,0,0,0-1.352-.422,1.989,1.989,0,0,0-1.283.491,2.678,2.678,0,0,0-.5.534,2.325,2.325,0,0,0-.319.611.766.766,0,0,1-.939.577.784.784,0,0,1-.577-.947,1.051,1.051,0,0,1,.155-.31Z" transform="translate(-30.659 -81.817)" fill="#212121"/>
    <path id="Path_886" data-name="Path 886" d="M272.28,702.923a5.246,5.246,0,0,1,.706-.732,5.787,5.787,0,0,1,.784-.586,3.745,3.745,0,0,1,1.895-.586,4.146,4.146,0,0,1,.982.121,5.429,5.429,0,0,1,.913.31,2.785,2.785,0,0,1,.422.215l.422.215c.258.164.525.336.8.491a.809.809,0,0,1,.327,1.111.823.823,0,0,1-1.387.086v-.043c-.146-.207-.319-.4-.491-.612a2.959,2.959,0,0,0-1.946-.9,2.058,2.058,0,0,0-1.283.491,2.9,2.9,0,0,0-.491.534,2.024,2.024,0,0,0-.319.62.784.784,0,0,1-1.516-.37.664.664,0,0,1,.155-.31Z" transform="translate(-33.189 -81.778)" fill="#212121"/>
    <path id="Path_887" data-name="Path 887" d="M261.179,710.091a5.1,5.1,0,0,0,.172.956,7.832,7.832,0,0,0,.327.956,5.528,5.528,0,0,0,1.834,2.343,5.389,5.389,0,0,0,.861.474,5.322,5.322,0,0,0,1.981.37,7.1,7.1,0,0,0,3.875-1.145,5.582,5.582,0,0,0,1.421-1.387,4.919,4.919,0,0,0,.482-.861,4.066,4.066,0,0,0,.181-.448,2.493,2.493,0,0,0,.095-.413.861.861,0,0,1,1.662.121.939.939,0,0,1-.069.267v.086a3.67,3.67,0,0,1-.31.586,5.161,5.161,0,0,1-.336.508,7.942,7.942,0,0,1-2.584,2.317,9.173,9.173,0,0,1-4.358,1.076,6.543,6.543,0,0,1-2.256-.387,6.087,6.087,0,0,1-1.955-1.223,8.233,8.233,0,0,1-1.421-1.808,9.71,9.71,0,0,1-.525-1.034,7.387,7.387,0,0,1-.422-1.12h0a.709.709,0,0,1,1.361-.4A.491.491,0,0,1,261.179,710.091Z" transform="translate(-31.484 -82.944)" fill="#212121"/>
    <path id="Path_888" data-name="Path 888" d="M349.48,676.055a6.183,6.183,0,0,1,1.49-1.318,3.652,3.652,0,0,1,1.895-.577,3.742,3.742,0,0,1,.982.112,5.428,5.428,0,0,1,.913.31,3.9,3.9,0,0,1,.422.215l.422.215c.258.164.525.336.8.491a.809.809,0,0,1,.327,1.111.823.823,0,0,1-1.387.086v-.043c-.146-.207-.319-.4-.491-.6a5.376,5.376,0,0,0-.594-.482,2.523,2.523,0,0,0-1.352-.422,2.1,2.1,0,0,0-1.283.491,3.194,3.194,0,0,0-.491.534,2.023,2.023,0,0,0-.319.62.784.784,0,0,1-1.516-.37.663.663,0,0,1,.155-.31Z" transform="translate(-43.903 -78.05)" fill="#212121"/>
    <path id="Path_889" data-name="Path 889" d="M367.687,675.775a6.442,6.442,0,0,1,.715-.732,6.626,6.626,0,0,1,.784-.586,3.7,3.7,0,0,1,1.886-.577,3.375,3.375,0,0,1,.982.121,5.011,5.011,0,0,1,.922.3c.155.06.276.146.422.215l.422.224c.258.164.517.327.8.482a.861.861,0,0,1,.327,1.12.809.809,0,0,1-1.111.319.749.749,0,0,1-.276-.241v-.043c-.146-.207-.319-.4-.491-.6a5.032,5.032,0,0,0-.586-.474,2.583,2.583,0,0,0-1.352-.422,2.007,2.007,0,0,0-1.283.491,2.644,2.644,0,0,0-.491.534,1.9,1.9,0,0,0-.319.611.784.784,0,1,1-1.516-.37.74.74,0,0,1,.146-.31Z" transform="translate(-46.427 -78.012)" fill="#212121"/>
    <path id="Path_890" data-name="Path 890" d="M356.6,682.957a5.1,5.1,0,0,0,.172.956,6.26,6.26,0,0,0,.327.956,5.9,5.9,0,0,0,1.085,1.722,4.539,4.539,0,0,0,.749.655,5.428,5.428,0,0,0,.861.482,5.079,5.079,0,0,0,1.972.362,7.1,7.1,0,0,0,3.884-1.137,5.615,5.615,0,0,0,1.9-2.239c.06-.146.121-.3.172-.448a2.58,2.58,0,0,0,.1-.413.861.861,0,1,1,1.654.121.628.628,0,0,1-.06.258v.095a5.161,5.161,0,0,1-.319.586c-.1.172-.215.336-.327.5a8.767,8.767,0,0,1-.767.913,7.664,7.664,0,0,1-1.843,1.412,9.3,9.3,0,0,1-4.366,1.076,6.718,6.718,0,0,1-2.248-.4,5.943,5.943,0,0,1-1.955-1.223,8.269,8.269,0,0,1-1.43-1.809,10.334,10.334,0,0,1-.947-2.144h0a.715.715,0,0,1,1.369-.4Z" transform="translate(-44.724 -79.191)" fill="#212121"/>
    <path id="Path_891" data-name="Path 891" d="M176.614,531.907a5.693,5.693,0,0,1-4.806-2.764c-1.111-1.662-1.4-3.187-.861-4.521.956-2.334,4.177-3.393,5.408-3.72-.8-.568-2.429-2.179-2.747-6.029a5.977,5.977,0,0,1,1.679-5.055c2.584-2.515,7.432-2.386,8.974-2.265a4.728,4.728,0,0,1-.517-4.409,8.112,8.112,0,0,1,5.581-5.228c3.342-.646,5.83,2.342,6.545,3.324,1.163-2.342,4.539-2.317,4.685-2.308a5.723,5.723,0,0,1,4.806,2.2c1.722,2.532.8,6.39.508,7.424,4.573.241,6.812,3.238,6.95,5.977s-3.7,6.528-8.225,6.959c-3.565.344-6.537-2.239-7.561-3.273.077,2.859-1.352,5.116-5.357,8.612a4.978,4.978,0,0,1-4,1.464,5.434,5.434,0,0,1-3.307-2.067c-.5,2-3.075,4.642-6.106,5.434A6.606,6.606,0,0,1,176.614,531.907Z" transform="translate(-19.114 -53.577)" fill="#ffcb47"/>
    <path id="Path_892" data-name="Path 892" d="M255.783,511.754a.586.586,0,0,1-.551-.362L240.091,476.5a.594.594,0,0,1,.31-.792.6.6,0,0,1,.792.319l15.175,34.888a.611.611,0,0,1-.31.792A.862.862,0,0,1,255.783,511.754Z" transform="translate(-28.74 -50.502)" fill="#8f8f8f"/>
    <path id="Path_893" data-name="Path 893" d="M147.642,695.675a3.7,3.7,0,0,1-3.126-1.421c-3.7-4.8,3.255-20.79,3.557-21.47v-.052c.112-.207,11.428-20.221,9.99-36.49-.2-2.187-.413-4.409-.62-6.562-.344-3.574-.7-7.269-.973-10.911a34.344,34.344,0,0,1-.069-3.66,72.844,72.844,0,0,1,1.791-12.281l.112-.525c1.559-7.639,3.367-15.088,5.365-22.133a180.888,180.888,0,0,1,11.945-32.028c3.591-7.191,4.056-14.3,4.461-20.574.611-9.336,1.085-16.708,12.186-17.81,3.807-.388,6.89.543,9.051,2.756,5.977,6.029,4.461,20.092,3.35,30.349-.448,4.16-.861,7.751-.5,9.31,1.464,6.89,6.425,35.775,6.287,40.933,0,.861-.095,1.628-.164,2.4-.353,3.9-.586,6.476,6.028,7.217,7.751.861,21.315,4.728,24.665,20.936.534,2.584,1.137,5.228,1.783,8.061,3.264,14.443,6.649,29.385.689,31.374-2.808.939-4.943-2.971-7.889-8.388-4.883-8.948-12.255-22.495-27.559-21.461a33.053,33.053,0,0,0-5.331.99c-.861.215-1.783.439-2.653.611-.517.1-1.051.189-1.576.267a16.6,16.6,0,0,0-3.049.654c-1.559.551-2.7,2.773-3.712,4.737-.379.732-.732,1.43-1.094,2-1.412,2.239-2.842,4.478-4.254,6.657-3.9,6.029-7.51,11.463-11.041,16.552-4.711,6.821-8.457,11.911-12.134,16.518l-.138.172c-3.135,3.936-6.382,8.009-10.386,11.11a8.913,8.913,0,0,1-3.919,2.067A6.879,6.879,0,0,1,147.642,695.675Zm1.516-22.391c-1.955,4.47-6.4,16.725-3.695,20.23.629.861,1.636,1.1,3.066.861a7.879,7.879,0,0,0,3.376-1.826c3.884-3.014,7.088-7.028,10.18-10.912l.138-.172c3.66-4.582,7.389-9.663,12.057-16.449,3.522-5.09,7.131-10.49,11.023-16.527,1.4-2.179,2.833-4.409,4.246-6.64.327-.534.68-1.2,1.042-1.912,1.111-2.162,2.377-4.607,4.375-5.322a17.987,17.987,0,0,1,3.273-.706c.534-.078,1.033-.155,1.516-.258.861-.164,1.722-.379,2.584-.594a32.726,32.726,0,0,1,5.538-1.025c16.1-1.076,23.7,12.858,28.73,22.09,2.584,4.711,4.6,8.431,6.45,7.811,4.926-1.636,1.369-17.345-1.49-29.962-.637-2.842-1.249-5.529-1.774-8.087-3.2-15.459-16.182-19.162-23.623-19.989-7.8-.861-7.467-4.582-7.1-8.517.06-.749.138-1.533.155-2.325.138-4.969-4.84-33.949-6.261-40.649-.37-1.722,0-5.253.482-9.68,1.025-9.473,2.584-23.761-3.006-29.385-1.955-1.964-4.6-2.756-8.087-2.411-10.076,1.016-10.481,7.251-11.092,16.7-.422,6.39-.861,13.633-4.59,21.039A179.788,179.788,0,0,0,164.8,580.479c-1.989,7.019-3.789,14.443-5.34,22.047l-.112.525a71.3,71.3,0,0,0-1.765,12.057h0a31.87,31.87,0,0,0,.069,3.531c.267,3.634.62,7.32.965,10.886.207,2.153.422,4.384.62,6.58,1.49,16.389-9.577,36.309-10.076,37.187ZM157.029,615.117Z" transform="translate(-15.332 -55.221)" fill="#8f8f8f"/>
    <path id="Path_894" data-name="Path 894" d="M181.916,562.111a21.809,21.809,0,0,0,2.816,1.722,25.075,25.075,0,0,0,3.075,1.361,20.154,20.154,0,0,0,6.554,1.292,15.5,15.5,0,0,0,6.511-1.275,16.415,16.415,0,0,0,5.357-3.944h0a.482.482,0,0,1,.689,0,.491.491,0,0,1,0,.7h0a21.735,21.735,0,0,1-2.678,2.274,16.521,16.521,0,0,1-3.057,1.722,16.725,16.725,0,0,1-6.847,1.412,20.666,20.666,0,0,1-3.5-.293,27.385,27.385,0,0,1-3.445-.861,29.383,29.383,0,0,1-3.264-1.266,26.219,26.219,0,0,1-3.135-1.671.743.743,0,1,1,.792-1.257h.052Z" transform="translate(-20.497 -62.362)" fill="#8f8f8f"/>
    <path id="Path_895" data-name="Path 895" d="M178.762,567.747c1.257.93,2.584,1.809,3.91,2.661s2.7,1.628,4.1,2.368a33,33,0,0,0,4.306,1.912,14.139,14.139,0,0,0,2.239.6,4.409,4.409,0,0,0,2.2-.086,1.662,1.662,0,0,0,.8-.612,8.525,8.525,0,0,0,1.387-3.143c.086-.379.146-.758.207-1.137s.095-.775.181-1.214a1.882,1.882,0,0,1,.112-.362.749.749,0,0,1,.121-.207.706.706,0,0,1,.25-.224.861.861,0,0,1,.594,0,1.574,1.574,0,0,1,.362.155,3.839,3.839,0,0,1,.551.37,3.447,3.447,0,0,1,.491.448,22.556,22.556,0,0,1,1.473,1.929,4.307,4.307,0,0,0,.741.784,1.438,1.438,0,0,0,.861.31,3.446,3.446,0,0,0,1.852-.861,15.428,15.428,0,0,0,1.679-1.688h0a.4.4,0,0,1,.577,0,.413.413,0,0,1,0,.577,15.718,15.718,0,0,1-1.722,1.722,7.119,7.119,0,0,1-1.059.715,3.083,3.083,0,0,1-1.335.37,2.282,2.282,0,0,1-1.361-.491,4.865,4.865,0,0,1-.9-.939,20.321,20.321,0,0,0-1.412-1.869,2.587,2.587,0,0,0-.388-.362,3.252,3.252,0,0,0-.439-.293,1.077,1.077,0,0,0-.181-.086h0l-.069.207c-.077.344-.129.749-.207,1.145a9.591,9.591,0,0,1-.267,1.2,10.334,10.334,0,0,1-.956,2.274,10.1,10.1,0,0,1-.672,1.033,2.394,2.394,0,0,1-1.059.861,5.244,5.244,0,0,1-2.515.207,14.11,14.11,0,0,1-2.394-.517,38.035,38.035,0,0,1-4.513-1.722q-2.209-.982-4.306-2.11c-1.4-.749-2.825-1.507-4.246-2.317a.937.937,0,1,1,.93-1.628.354.354,0,0,1,.095.06Z" transform="translate(-20.03 -63.262)" fill="#8f8f8f"/>
    <path id="Path_896" data-name="Path 896" d="M111.03,594.755a.6.6,0,0,1-.043-1.2c37.1-3.083,53.852-22.727,54.015-22.925a.6.6,0,0,1,.921.766c-.172.207-4.306,5.167-13.194,10.524-8.156,4.952-22.013,11.2-41.648,12.832Z" transform="translate(-10.758 -63.659)" fill="#8f8f8f"/>
    <path id="Path_897" data-name="Path 897" d="M213.1,551.311a.611.611,0,0,1-.5-.267.6.6,0,0,1,.164-.861c.2-.129,19.636-13.512,33.294-47.944a.6.6,0,1,1,1.12.448c-13.779,34.8-33.587,48.357-33.742,48.495A.594.594,0,0,1,213.1,551.311Z" transform="translate(-24.916 -54.137)" fill="#8f8f8f"/>
    <path id="Path_898" data-name="Path 898" d="M163.526,629.28c-2.721,0-4.306-.12-4.375-.129a.594.594,0,0,1-.551-.646.6.6,0,0,1,.646-.551c.284,0,28.971,2.119,53.55-12.195a.6.6,0,0,1,.6,1.042C194.254,627.963,172.6,629.28,163.526,629.28Z" transform="translate(-17.437 -69.936)" fill="#8f8f8f"/>
    <path id="Path_899" data-name="Path 899" d="M211.087,616.369c.99.861,2.635,1.455,5.3,1.722,8.612.956,21,5.322,24.114,20.462s9.413,36.558,2.868,38.755-10.912-31.512-35.31-29.884c-2.661.181-5.46,1.094-8.07,1.619a34.68,34.68,0,0,0-4.7.939c-2.411.861-3.781,4.874-5.116,6.984s-2.825,4.444-4.246,6.649c-3.6,5.563-7.26,11.092-11.032,16.535-3.884,5.606-7.863,11.2-12.109,16.492-3.143,3.936-6.425,8.078-10.429,11.2a8.422,8.422,0,0,1-3.643,1.946c-10.335,1.636,0-21.961,0-21.961s11.532-20.187,10.059-36.834c-.517-5.822-1.154-11.635-1.585-17.474a33.491,33.491,0,0,1-.069-3.591,9.08,9.08,0,0,1,.06-1.283h0s31.288,1.929,53.9-12.281Z" transform="translate(-15.427 -70.029)" fill="#cbcbdb"/>
  </g>
</svg>
